<svg xmlns="http://www.w3.org/2000/svg" width="21.392" height="22.5" viewBox="0 0 21.392 22.5">
  <path id="Icon_awesome-calendar-alt" data-name="Icon awesome-calendar-alt" d="M0,20.391A2.207,2.207,0,0,0,2.292,22.5H19.1a2.207,2.207,0,0,0,2.292-2.109V8.438H0Zm15.28-8.613a.553.553,0,0,1,.573-.527h1.91a.553.553,0,0,1,.573.527v1.758a.553.553,0,0,1-.573.527h-1.91a.553.553,0,0,1-.573-.527Zm0,5.625a.553.553,0,0,1,.573-.527h1.91a.553.553,0,0,1,.573.527V19.16a.553.553,0,0,1-.573.527h-1.91a.553.553,0,0,1-.573-.527ZM9.168,11.777a.553.553,0,0,1,.573-.527h1.91a.553.553,0,0,1,.573.527v1.758a.553.553,0,0,1-.573.527H9.741a.553.553,0,0,1-.573-.527Zm0,5.625a.553.553,0,0,1,.573-.527h1.91a.553.553,0,0,1,.573.527V19.16a.553.553,0,0,1-.573.527H9.741a.553.553,0,0,1-.573-.527ZM3.056,11.777a.553.553,0,0,1,.573-.527h1.91a.553.553,0,0,1,.573.527v1.758a.553.553,0,0,1-.573.527H3.629a.553.553,0,0,1-.573-.527Zm0,5.625a.553.553,0,0,1,.573-.527h1.91a.553.553,0,0,1,.573.527V19.16a.553.553,0,0,1-.573.527H3.629a.553.553,0,0,1-.573-.527ZM19.1,2.813H16.808V.7a.738.738,0,0,0-.764-.7H14.516a.738.738,0,0,0-.764.7V2.813H7.64V.7A.738.738,0,0,0,6.876,0H5.348a.738.738,0,0,0-.764.7V2.813H2.292A2.207,2.207,0,0,0,0,4.922V7.031H21.392V4.922A2.207,2.207,0,0,0,19.1,2.813Z" fill="#023129"/>
</svg>
