<svg xmlns="http://www.w3.org/2000/svg" width="21.664" height="17.331" viewBox="0 0 21.664 17.331">
  <path id="Icon_awesome-school" data-name="Icon awesome-school" d="M0,7.582v9.207a.541.541,0,0,0,.542.542H3.25V6.5H1.083A1.083,1.083,0,0,0,0,7.582ZM12.186,5.958h-.812V4.6a.271.271,0,0,0-.271-.271h-.542a.271.271,0,0,0-.271.271V6.77a.271.271,0,0,0,.271.271h1.625a.271.271,0,0,0,.271-.271V6.228A.271.271,0,0,0,12.186,5.958Zm4.663-2.165L11.433.182a1.084,1.084,0,0,0-1.2,0L4.815,3.793a1.083,1.083,0,0,0-.482.9V17.331H8.666V12.457a.541.541,0,0,1,.542-.542h3.25a.541.541,0,0,1,.542.542v4.874h4.333V4.694a1.083,1.083,0,0,0-.482-.9ZM10.832,8.666A2.708,2.708,0,1,1,13.54,5.958,2.708,2.708,0,0,1,10.832,8.666ZM20.581,6.5H18.414V17.331h2.708a.541.541,0,0,0,.542-.542V7.582A1.083,1.083,0,0,0,20.581,6.5Z" fill="#023129"/>
</svg>
