<svg xmlns="http://www.w3.org/2000/svg" xmlns:xlink="http://www.w3.org/1999/xlink" width="21.39" height="22.5" viewBox="0 0 21.39 22.5">
  <defs>
    <clipPath id="clip-path">
      <rect id="Rectangle_150" data-name="Rectangle 150" width="21.39" height="22.5" fill="#023129"/>
    </clipPath>
  </defs>
  <g id="Group_369" data-name="Group 369" transform="translate(0 0)">
    <g id="Group_368" data-name="Group 368" transform="translate(0 0)" clip-path="url(#clip-path)">
      <path id="Path_992" data-name="Path 992" d="M19.155,14.3c-.082.353-.137.716-.249,1.057a5.3,5.3,0,0,1-4.226,3.949C11.9,19.8,9.3,17.694,8.767,14.546c-.546-3.229,1.356-6.357,4.3-6.9,3.088-.569,5.661,1.871,6.058,4.908a.174.174,0,0,0,.031.058Zm-3.006-.331c.494,0,.989,0,1.482,0a.5.5,0,0,0,.033-1,2.025,2.025,0,0,0-.208-.006H14.721c-.248,0-.335-.1-.336-.38v-.469q0-1.359,0-2.72c0-.374-.195-.606-.483-.588-.255.016-.421.242-.421.588,0,1.063,0,2.127-.006,3.189a.551.551,0,0,1-.1.3.952.952,0,0,0,.029,1.19.715.715,0,0,0,1.059.013.438.438,0,0,1,.27-.117c.473-.011.946-.006,1.419-.006" transform="translate(2.235 3.123)" fill="#023129"/>
      <path id="Path_993" data-name="Path 993" d="M2.825,2.077c0-.314.013-.609,0-.9A1.016,1.016,0,0,1,3.873,0c.375.03.752,0,1.128.006a.986.986,0,0,1,.933,1.057c0,.328,0,.654,0,1H7.8c0-.314.015-.625,0-.934A1.012,1.012,0,0,1,8.807,0c.381.025.765,0,1.148.006a.982.982,0,0,1,.953,1.08c0,.318,0,.637,0,.972H12.78q0-.475,0-.951a.981.981,0,0,1,.976-1.1q.585,0,1.17,0a.978.978,0,0,1,.957,1.074c0,.321,0,.64,0,.995.22,0,.426,0,.631,0a7.363,7.363,0,0,1,1,.037A1.465,1.465,0,0,1,18.7,3.649c.011,2.275,0,4.551,0,6.828a.435.435,0,0,1-.011.066,5.349,5.349,0,0,0-6.486,1.126,7.08,7.08,0,0,0-1.643,7.161h-9.1A1.5,1.5,0,0,1,0,17.194c0-1.119,0-2.237,0-3.356V3.811A1.52,1.52,0,0,1,1.548,2.077c.418,0,.834,0,1.277,0M10.908,3.3c0,.2,0,.4,0,.592a.979.979,0,0,1-.937,1.05c-.41,0-.821,0-1.231,0a.972.972,0,0,1-.934-1.029c0-.2,0-.4,0-.612H5.935v.548a.988.988,0,0,1-.966,1.092c-.384,0-.766,0-1.148,0a.983.983,0,0,1-.995-1.1c0-.178,0-.355,0-.551-.454,0-.878,0-1.3,0-.362,0-.453.1-.453.516q0,1.373,0,2.744v.24H17.632c0-1.071,0-2.125,0-3.181a.279.279,0,0,0-.263-.307c-.485-.013-.971,0-1.484,0,0,.223.005.432,0,.642a.972.972,0,0,1-.912,1c-.425,0-.849,0-1.274,0a.981.981,0,0,1-.916-1.026c0-.2,0-.4,0-.616Z" transform="translate(0 0)" fill="#023129"/>
    </g>
  </g>
</svg>
