<svg xmlns="http://www.w3.org/2000/svg" xmlns:xlink="http://www.w3.org/1999/xlink" width="19.634" height="20.044" viewBox="0 0 19.634 20.044">
  <defs>
    <clipPath id="clip-path">
      <rect id="Rectangle_149" data-name="Rectangle 149" width="19.634" height="20.044" fill="#023129"/>
    </clipPath>
  </defs>
  <g id="Group_367" data-name="Group 367" transform="translate(0 0)">
    <g id="Group_366" data-name="Group 366" transform="translate(0 0)" clip-path="url(#clip-path)">
      <path id="Path_990" data-name="Path 990" d="M2.774,7.919c0,.385,0,.759,0,1.133,0,.547.3.773,1.011.773H15.852c.706,0,1-.22,1-.755q0-.543.006-1.086a.118.118,0,0,1,.015-.039,2.368,2.368,0,0,1,2.651,1.137,1.6,1.6,0,0,1,.107.6q.009,6.849,0,13.7c0,1.008-.961,1.733-2.282,1.733q-7.548,0-15.1,0C.97,25.108,0,24.37,0,23.394Q0,16.586,0,9.778a1.561,1.561,0,0,1,.444-1.2,2.809,2.809,0,0,1,2.33-.66M13.344,21.73c.581,0,1.163,0,1.744,0,.319,0,.508-.12.5-.311s-.182-.307-.484-.308q-1.759,0-3.516,0c-.3,0-.479.13-.478.314s.188.3.485.3c.582,0,1.163,0,1.745,0M13.337,11.9h.927c.309,0,.618.007.927-.005.247-.009.4-.139.4-.3s-.158-.3-.4-.305q-1.84-.006-3.679,0c-.24,0-.406.133-.4.3s.142.28.367.308a1.987,1.987,0,0,0,.245.006h1.608m-.018,3.273c.59,0,1.18,0,1.771,0,.317,0,.506-.12.5-.311s-.174-.3-.487-.305q-1.757-.006-3.515,0c-.3,0-.478.128-.476.315s.182.3.486.3c.572,0,1.144,0,1.717,0m.028,2.664h0c-.6,0-1.2,0-1.8,0-.263,0-.431.127-.433.3s.16.3.421.311c.081,0,.163,0,.245,0h2.833c.209,0,.418.005.625-.01s.347-.125.348-.293-.131-.282-.363-.306c-.071-.007-.145-.005-.218-.005H13.346m-8.1-2.757c-.188-.159-.349-.309-.528-.444a.461.461,0,0,0-.561,0,.246.246,0,0,0-.018.415c.25.23.509.453.774.673a.439.439,0,0,0,.557.035q.938-.667,1.852-1.354a.231.231,0,0,0,0-.4.453.453,0,0,0-.517-.048,1.088,1.088,0,0,0-.164.109L5.249,15.081m0,3.277c-.167-.142-.313-.272-.468-.4a.482.482,0,0,0-.619-.053c-.165.12-.157.3.027.466q.329.292.667.579a.5.5,0,0,0,.718.018q.79-.575,1.577-1.152c.31-.228.357-.394.158-.547s-.409-.117-.722.113c-.438.321-.878.64-1.337.975m0,3.278L5,21.428c-.079-.067-.154-.137-.236-.2a.482.482,0,0,0-.6-.042c-.163.118-.167.294,0,.447.229.206.464.409.7.611a.479.479,0,0,0,.676.022c.4-.285.79-.575,1.184-.862.19-.139.388-.274.569-.419a.25.25,0,0,0,.013-.43.482.482,0,0,0-.563-.008c-.063.039-.119.085-.178.129l-1.323.963m0-9.831c-.162-.14-.3-.259-.439-.377a.5.5,0,0,0-.637-.08c-.183.125-.167.309.046.5s.419.366.631.548a.5.5,0,0,0,.716.029c.555-.4,1.105-.806,1.657-1.21.241-.177.272-.345.1-.491a.508.508,0,0,0-.645.047c-.467.339-.933.679-1.426,1.039" transform="translate(0 -5.065)" fill="#023129"/>
      <path id="Path_991" data-name="Path 991" d="M13.393,4.456H7.336c-.433,0-.558-.092-.559-.417q0-.751,0-1.5c0-.315.1-.385.5-.417a8.359,8.359,0,0,0,.936-.126c.323-.063.518-.246.533-.5.021-.339,0-.68-.008-1.02C8.731.084,8.836,0,9.355,0h8.131c.5,0,.624.1.6.489-.015.271-.05.542-.046.812.006.448.226.651.793.742.257.041.521.061.783.079.29.02.433.118.435.341.006.536,0,1.072,0,1.607,0,.278-.147.385-.522.385q-1.692,0-3.383,0H13.393" transform="translate(-3.597 0)" fill="#023129"/>
    </g>
  </g>
</svg>
