<svg id="Group_400" data-name="Group 400" xmlns="http://www.w3.org/2000/svg" xmlns:xlink="http://www.w3.org/1999/xlink" width="270.179" height="252.248" viewBox="0 0 270.179 252.248">
  <defs>
    <clipPath id="clip-path">
      <rect id="Rectangle_162" data-name="Rectangle 162" width="270.179" height="252.248" fill="none"/>
    </clipPath>
    <clipPath id="clip-path-5">
      <rect id="Rectangle_153" data-name="Rectangle 153" width="22.082" height="48.571" fill="none"/>
    </clipPath>
    <clipPath id="clip-path-8">
      <rect id="Rectangle_156" data-name="Rectangle 156" width="11.325" height="16.118" fill="none"/>
    </clipPath>
    <clipPath id="clip-path-9">
      <rect id="Rectangle_157" data-name="Rectangle 157" width="15.517" height="17.612" fill="none"/>
    </clipPath>
    <clipPath id="clip-path-11">
      <rect id="Rectangle_159" data-name="Rectangle 159" width="36.947" height="49.563" fill="none"/>
    </clipPath>
    <clipPath id="clip-path-12">
      <rect id="Rectangle_160" data-name="Rectangle 160" width="15.092" height="8.071" fill="none"/>
    </clipPath>
  </defs>
  <g id="Group_399" data-name="Group 399" clip-path="url(#clip-path)">
    <g id="Group_373" data-name="Group 373">
      <g id="Group_372" data-name="Group 372" clip-path="url(#clip-path)">
        <path id="Path_998" data-name="Path 998" d="M230.613,190.718c52.755,30.458,52.755,79.841,0,110.3s-138.29,30.459-191.045,0-52.755-79.841,0-110.3,138.29-30.459,191.045,0" transform="translate(0 -71.614)" fill="#f0f0f0"/>
      </g>
    </g>
    <g id="Group_375" data-name="Group 375">
      <g id="Group_374" data-name="Group 374" clip-path="url(#clip-path)">
        <path id="Path_999" data-name="Path 999" d="M185.121,321.038c18.192,10.5,18.192,27.532,0,38.036s-47.688,10.5-65.88,0-18.192-27.533,0-38.036,47.688-10.5,65.88,0" transform="translate(-45.047 -133.591)" fill="#e0e0e0"/>
      </g>
    </g>
    <g id="Group_380" data-name="Group 380">
      <g id="Group_379" data-name="Group 379" clip-path="url(#clip-path)">
        <path id="Path_1000" data-name="Path 1000" d="M53.345,252.992l5.044-3.4s2.22-13.215.157-24.822c-2.9-16.319-14.155-21.751-18.171-20.045s-4.875,6.573,2.619,15.89c4.421,5.5,10.2,17.187,10.352,32.381" transform="translate(-15.93 -87.204)" fill="#27debf"/>
        <g id="Group_378" data-name="Group 378" transform="translate(21.412 117.217)" opacity="0.15">
          <g id="Group_377" data-name="Group 377">
            <g id="Group_376" data-name="Group 376" clip-path="url(#clip-path-5)">
              <path id="Path_1001" data-name="Path 1001" d="M53.345,252.992l5.044-3.4s2.22-13.215.157-24.822c-2.9-16.319-14.155-21.751-18.171-20.045s-4.875,6.573,2.619,15.89c4.421,5.5,10.2,17.187,10.352,32.381" transform="translate(-37.342 -204.421)"/>
            </g>
          </g>
        </g>
        <path id="Path_1002" data-name="Path 1002" d="M59.19,248.185a.293.293,0,0,1-.05,0,.365.365,0,0,1-.32-.405c1.822-15.366-4.666-32.038-11.721-38.671a.365.365,0,0,1,.5-.532c7.184,6.754,13.794,23.7,11.945,39.289a.365.365,0,0,1-.355.322" transform="translate(-20.043 -88.933)" fill="#fff"/>
        <path id="Path_1003" data-name="Path 1003" d="M33.664,272.235c-.8.481-3.141-1.255-3.788-1.672a7.726,7.726,0,0,1-2.627-2.9,7.239,7.239,0,0,1-.728-4.337A17.112,17.112,0,0,1,27.028,261q.3-1.128.6-2.258a5.675,5.675,0,0,0,.286-2.27c-.226-1.532-1.61-2.58-2.866-3.485-1.389-1-2.842-2.326-2.87-4.174a6.508,6.508,0,0,1,1.554-3.9c.862-1.136,1.892-2.145,2.667-3.342a4.536,4.536,0,0,0,.874-2.889,4.727,4.727,0,0,0-.66-1.782,25.388,25.388,0,0,1-2.033-3.561,3.619,3.619,0,0,1,.549-3.838,4.231,4.231,0,0,1,3.165-.853,7.293,7.293,0,0,1,2.978.984c2.966,1.575,4.707,5.017,7.845,6.213a31.188,31.188,0,0,0,3.786.849,4.65,4.65,0,0,1,3.149,2.068c1.187,2.261-.88,5.115-.029,7.523.752,2.131,2.852,2.911,4.06,4.821a4.589,4.589,0,0,1,.6,2.8,13.467,13.467,0,0,1-1.092,4.767,42.244,42.244,0,0,1-2.506,4.512s-13.3,8.978-13.423,9.052" transform="translate(-9.461 -97.536)" fill="#27debf"/>
        <path id="Path_1004" data-name="Path 1004" d="M46.522,269.62h-.01a.367.367,0,0,1-.363-.373c.323-14.517-6.82-30.4-11.88-34.956a.366.366,0,0,1,.489-.544c5.162,4.648,12.45,20.794,12.122,35.515a.366.366,0,0,1-.358.357" transform="translate(-14.568 -99.675)" fill="#fff"/>
        <path id="Path_1005" data-name="Path 1005" d="M42.862,263.869a.35.35,0,0,1-.108-.014,49.063,49.063,0,0,0-10.56-1.494.366.366,0,0,1-.357-.373.355.355,0,0,1,.373-.358,49.909,49.909,0,0,1,10.746,1.523.365.365,0,0,1-.094.716" transform="translate(-13.581 -111.609)" fill="#fff"/>
      </g>
    </g>
    <g id="Group_382" data-name="Group 382">
      <g id="Group_381" data-name="Group 381" clip-path="url(#clip-path)">
        <path id="Path_1006" data-name="Path 1006" d="M284.207,174.228l-2.175-1.257a2.745,2.745,0,0,1-1.241-2.151V80.5a2.743,2.743,0,0,1,1.241-2.15l60.406-34.875a2.746,2.746,0,0,1,2.483,0l2.176,1.256a2.743,2.743,0,0,1,1.241,2.15V137.2a2.744,2.744,0,0,1-1.241,2.15l-60.407,34.878a2.741,2.741,0,0,1-2.482,0" transform="translate(-119.783 -18.419)" fill="#455a64"/>
        <path id="Path_1007" data-name="Path 1007" d="M348.6,46.678c-.086-.642-.608-.877-1.233-.516l-60.4,34.88a2.57,2.57,0,0,0-.877.923l-4.662-2.689a2.541,2.541,0,0,1,.877-.929l60.409-34.875a2.745,2.745,0,0,1,2.483,0l2.173,1.256a2.77,2.77,0,0,1,1.233,1.95" transform="translate(-120.052 -18.418)" fill="#455a64"/>
        <path id="Path_1008" data-name="Path 1008" d="M286.48,201.185a2.769,2.769,0,0,1-2.271-.1l-2.179-1.262a2.75,2.75,0,0,1-1.239-2.15V107.354a2.541,2.541,0,0,1,.361-1.221l4.662,2.689a2.508,2.508,0,0,0-.367,1.227v90.322c0,.711.447,1.038,1.032.814" transform="translate(-119.783 -45.275)" fill="#263238"/>
        <path id="Path_1009" data-name="Path 1009" d="M288.913,85.287v90.321c0,.792.556,1.112,1.241.717l60.407-34.878a2.745,2.745,0,0,0,1.241-2.15V48.975c0-.792-.556-1.113-1.241-.717L290.154,83.137a2.743,2.743,0,0,0-1.241,2.15" transform="translate(-123.248 -20.514)" fill="#37474f"/>
        <path id="Path_1010" data-name="Path 1010" d="M260.486,158.328c-.78-.464-4.4-2.523-4.587-2.632a1.157,1.157,0,0,1-.247-1.772L269.936,138.6l4.656,2.672L260.314,156.6a1.152,1.152,0,0,0,.172,1.726" transform="translate(-108.927 -59.127)" fill="#455a64"/>
        <path id="Path_1011" data-name="Path 1011" d="M278.058,143.267,263.777,158.59a1.149,1.149,0,0,0,.935,1.928l13.345-1.1Z" transform="translate(-112.392 -61.116)" fill="#37474f"/>
        <path id="Path_1012" data-name="Path 1012" d="M334.267,93.887c7.04-4.065,12.747-.77,12.747,7.36s-5.707,18.014-12.747,22.079-12.747.77-12.747-7.36,5.707-18.015,12.747-22.079" transform="translate(-137.158 -39.309)" fill="#27debf"/>
        <path id="Path_1013" data-name="Path 1013" d="M340.518,105.92c2.284-1.319,4.135-.249,4.135,2.388a9.142,9.142,0,0,1-4.135,7.163c-2.284,1.318-4.136.249-4.136-2.388a9.142,9.142,0,0,1,4.136-7.163" transform="translate(-143.498 -44.943)" fill="#fff"/>
        <path id="Path_1014" data-name="Path 1014" d="M345.954,127.255c0-4.333-3.043-6.09-6.794-3.923l-2.346,1.354a15.019,15.019,0,0,0-6.794,11.768v1.182a6.989,6.989,0,0,0,2.19.338,11.5,11.5,0,0,0,5.684-1.741,25.12,25.12,0,0,0,8.06-7.974Z" transform="translate(-140.784 -52.217)" fill="#fff"/>
        <path id="Path_1015" data-name="Path 1015" d="M328.745,209.647l16.151-9.325c.686-.4,1.241-.075,1.241.717v5.2a2.745,2.745,0,0,1-1.241,2.15l-16.151,9.324c-.685.4-1.241.075-1.241-.717v-5.2a2.743,2.743,0,0,1,1.241-2.15" transform="translate(-139.71 -85.383)" fill="#27debf"/>
        <path id="Path_1016" data-name="Path 1016" d="M314.776,182.569l31.959-18.451c.823-.475,1.49-.09,1.49.86v1.936a3.294,3.294,0,0,1-1.49,2.58l-31.958,18.451c-.823.475-1.49.09-1.49-.86v-1.936a3.292,3.292,0,0,1,1.49-2.58" transform="translate(-133.645 -69.924)" fill="#fafafa"/>
        <path id="Path_1017" data-name="Path 1017" d="M321.218,172.994q.652-.378,1.013-.112t.361,1.178a3.406,3.406,0,0,1-.361,1.6,2.585,2.585,0,0,1-1.013,1.067l-.863.5v1.852a.422.422,0,0,1-.043.182.266.266,0,0,1-.1.126l-.436.252a.077.077,0,0,1-.1-.007.179.179,0,0,1-.044-.133v-5.363a.426.426,0,0,1,.044-.183.271.271,0,0,1,.1-.126Zm-.863,3.2.835-.483a1.381,1.381,0,0,0,.491-.47,1.411,1.411,0,0,0,.183-.757q0-.464-.183-.537a.589.589,0,0,0-.491.105l-.835.482Z" transform="translate(-136.35 -73.703)" fill="#fafafa"/>
        <path id="Path_1018" data-name="Path 1018" d="M327.413,169.333c.057-.033.1-.034.13,0a.393.393,0,0,1,.076.169l1.321,4.485a.238.238,0,0,1,.005.055.426.426,0,0,1-.043.182.268.268,0,0,1-.1.126l-.388.224c-.072.042-.123.047-.151.017a.24.24,0,0,1-.059-.1l-.232-.787-1.7.985-.232,1.055a.876.876,0,0,1-.059.171.354.354,0,0,1-.151.158l-.388.224a.079.079,0,0,1-.1-.007.177.177,0,0,1-.043-.132.293.293,0,0,1,.006-.061l1.321-6.01a1.208,1.208,0,0,1,.076-.255.31.31,0,0,1,.129-.145Zm.3,3.474-.593-2.024-.593,2.708Z" transform="translate(-138.765 -72.225)" fill="#fafafa"/>
        <path id="Path_1019" data-name="Path 1019" d="M334.028,165.483a1.408,1.408,0,0,1,.636-.217.777.777,0,0,1,.459.108.747.747,0,0,1,.278.334,1.257,1.257,0,0,1,.1.45.358.358,0,0,1-.04.185.3.3,0,0,1-.105.123l-.378.218c-.061.036-.106.044-.137.026a.25.25,0,0,1-.084-.1.423.423,0,0,0-.244-.22.647.647,0,0,0-.489.128,1.469,1.469,0,0,0-.267.2,1.44,1.44,0,0,0-.221.261,1.262,1.262,0,0,0-.149.3.953.953,0,0,0-.054.314.594.594,0,0,0,.051.282.217.217,0,0,0,.173.107.972.972,0,0,0,.32-.024c.133-.026.3-.064.5-.112a2.023,2.023,0,0,1,.559-.068.643.643,0,0,1,.382.127.7.7,0,0,1,.221.341,1.848,1.848,0,0,1,.073.564,2.783,2.783,0,0,1-.108.756,3.169,3.169,0,0,1-.307.725,3.313,3.313,0,0,1-.491.645,2.968,2.968,0,0,1-.653.509,1.724,1.724,0,0,1-.577.221.868.868,0,0,1-.488-.041.71.71,0,0,1-.343-.313,1.275,1.275,0,0,1-.145-.58.358.358,0,0,1,.04-.185.288.288,0,0,1,.1-.123l.378-.218c.061-.036.108-.046.14-.031a.177.177,0,0,1,.081.1.864.864,0,0,0,.092.164.279.279,0,0,0,.145.107.479.479,0,0,0,.229.005,1.149,1.149,0,0,0,.342-.144,2.277,2.277,0,0,0,.313-.218,1.585,1.585,0,0,0,.264-.277,1.52,1.52,0,0,0,.183-.322.937.937,0,0,0,.07-.361.349.349,0,0,0-.075-.255.3.3,0,0,0-.229-.066,1.872,1.872,0,0,0-.38.061c-.151.037-.326.075-.523.111a1.576,1.576,0,0,1-.472.036.559.559,0,0,1-.334-.143.745.745,0,0,1-.2-.355,2.33,2.33,0,0,1-.065-.607,2.723,2.723,0,0,1,.108-.75,3.21,3.21,0,0,1,.3-.712,3.137,3.137,0,0,1,.45-.612,2.442,2.442,0,0,1,.563-.455" transform="translate(-141.842 -70.5)" fill="#fafafa"/>
        <path id="Path_1020" data-name="Path 1020" d="M340.591,161.693a1.42,1.42,0,0,1,.636-.218.779.779,0,0,1,.459.109.746.746,0,0,1,.278.334,1.259,1.259,0,0,1,.1.45.349.349,0,0,1-.04.185.29.29,0,0,1-.106.123l-.378.218c-.061.035-.107.044-.137.026a.256.256,0,0,1-.084-.1.427.427,0,0,0-.245-.22.646.646,0,0,0-.489.128,1.512,1.512,0,0,0-.488.46,1.286,1.286,0,0,0-.148.3.946.946,0,0,0-.054.314.59.59,0,0,0,.051.282.216.216,0,0,0,.172.108.99.99,0,0,0,.321-.023c.133-.026.3-.064.5-.112a2.047,2.047,0,0,1,.559-.069.643.643,0,0,1,.382.127.7.7,0,0,1,.221.341,1.851,1.851,0,0,1,.073.565,2.788,2.788,0,0,1-.108.756,3.142,3.142,0,0,1-.307.725,3.314,3.314,0,0,1-.491.645,2.994,2.994,0,0,1-.652.509,1.743,1.743,0,0,1-.577.221.863.863,0,0,1-.488-.042.7.7,0,0,1-.342-.313,1.262,1.262,0,0,1-.146-.58.355.355,0,0,1,.041-.185.283.283,0,0,1,.1-.123l.377-.218c.061-.035.108-.046.14-.03a.171.171,0,0,1,.081.1.938.938,0,0,0,.092.164.281.281,0,0,0,.146.106.477.477,0,0,0,.229.005,1.152,1.152,0,0,0,.343-.144,2.213,2.213,0,0,0,.313-.218,1.565,1.565,0,0,0,.264-.276,1.53,1.53,0,0,0,.184-.322.932.932,0,0,0,.069-.36.35.35,0,0,0-.075-.255.3.3,0,0,0-.229-.066,1.955,1.955,0,0,0-.38.061c-.151.038-.326.075-.523.111a1.593,1.593,0,0,1-.472.036.557.557,0,0,1-.334-.143.744.744,0,0,1-.2-.356,2.3,2.3,0,0,1-.065-.606,2.731,2.731,0,0,1,.108-.751,3.247,3.247,0,0,1,.3-.712,3.18,3.18,0,0,1,.451-.612,2.457,2.457,0,0,1,.563-.454" transform="translate(-144.642 -68.884)" fill="#fafafa"/>
        <path id="Path_1021" data-name="Path 1021" d="M347.548,160.043l-.464,2.75a1.348,1.348,0,0,1-.067.242.287.287,0,0,1-.121.149l-.438.252c-.054.031-.1.03-.126-.006a.308.308,0,0,1-.062-.167l-.692-4.84a.609.609,0,0,1,0-.064.421.421,0,0,1,.044-.183.269.269,0,0,1,.1-.126l.4-.231a.11.11,0,0,1,.1-.009c.032.015.054.06.065.138l.453,3.258.4-2.447a1.124,1.124,0,0,1,.052-.179.305.305,0,0,1,.136-.171l.442-.255c.065-.037.111-.033.138.013a.409.409,0,0,1,.05.119l.4,1.987.453-3.781a.52.52,0,0,1,.066-.213.307.307,0,0,1,.1-.108l.4-.23a.079.079,0,0,1,.1.007.18.18,0,0,1,.042.133.5.5,0,0,1,0,.069l-.69,5.638a.879.879,0,0,1-.062.239.316.316,0,0,1-.127.153l-.436.252c-.054.032-.094.029-.121-.009a.5.5,0,0,1-.068-.165Z" transform="translate(-147.419 -66.516)" fill="#fafafa"/>
        <path id="Path_1022" data-name="Path 1022" d="M353.692,156.348a5.478,5.478,0,0,1,.116-.943,4.11,4.11,0,0,1,.294-.884,3.463,3.463,0,0,1,.485-.761,2.586,2.586,0,0,1,.691-.577,1.363,1.363,0,0,1,.684-.221.681.681,0,0,1,.486.2,1.258,1.258,0,0,1,.3.542,3.3,3.3,0,0,1,.12.811c0,.1.006.218.007.345s0,.257,0,.392,0,.268,0,.4,0,.247-.007.353a5.465,5.465,0,0,1-.116.943,4.111,4.111,0,0,1-.294.884,3.383,3.383,0,0,1-.488.759,2.636,2.636,0,0,1-.687.571,1.388,1.388,0,0,1-.691.225.689.689,0,0,1-.485-.2,1.2,1.2,0,0,1-.294-.544,3.472,3.472,0,0,1-.116-.809c0-.1-.006-.217-.007-.344s0-.257,0-.393,0-.267,0-.4,0-.246.007-.353m2.443-1.369a1.068,1.068,0,0,0-.251-.781c-.153-.13-.355-.123-.607.022a1.554,1.554,0,0,0-.607.678,2.575,2.575,0,0,0-.251,1.071q-.011.322-.011.708c0,.257,0,.488.011.695a1.048,1.048,0,0,0,.251.776c.153.128.355.119.607-.026a1.562,1.562,0,0,0,.607-.673,2.561,2.561,0,0,0,.251-1.067q.011-.322.011-.708t-.011-.7" transform="translate(-150.878 -65.252)" fill="#fafafa"/>
        <path id="Path_1023" data-name="Path 1023" d="M362.478,149.192q.673-.389,1.024-.11a1.415,1.415,0,0,1,.351,1.134,3.52,3.52,0,0,1-.181,1.138,2.847,2.847,0,0,1-.532.942l.744,1.621a.218.218,0,0,1,.017.083.345.345,0,0,1-.036.149.223.223,0,0,1-.084.1l-.458.264c-.072.041-.125.046-.159.014a.319.319,0,0,1-.073-.1l-.706-1.528-.717.415v1.935a.42.42,0,0,1-.043.182.281.281,0,0,1-.1.127l-.437.252a.078.078,0,0,1-.1-.008.172.172,0,0,1-.044-.132V150.3a.417.417,0,0,1,.044-.183.281.281,0,0,1,.1-.127Zm-.809,3.083.782-.451a1.459,1.459,0,0,0,.491-.45,1.3,1.3,0,0,0,.183-.737q0-.464-.183-.517a.68.68,0,0,0-.491.126l-.782.451Z" transform="translate(-153.974 -63.547)" fill="#fafafa"/>
        <path id="Path_1024" data-name="Path 1024" d="M369.191,145.333a1.531,1.531,0,0,1,.693-.239.665.665,0,0,1,.491.178,1.191,1.191,0,0,1,.3.548,3.777,3.777,0,0,1,.127.873q.022.6,0,1.229a5.977,5.977,0,0,1-.127,1.02,4.172,4.172,0,0,1-.3.9,3.16,3.16,0,0,1-.483.739,2.652,2.652,0,0,1-.677.553l-1.359.784a.078.078,0,0,1-.1-.007.176.176,0,0,1-.043-.132V146.41a.424.424,0,0,1,.043-.182.276.276,0,0,1,.1-.126Zm.884,1.78a1.972,1.972,0,0,0-.067-.455.668.668,0,0,0-.167-.3.384.384,0,0,0-.278-.106.846.846,0,0,0-.4.135l-.723.417v3.736l.749-.432a1.456,1.456,0,0,0,.383-.317,1.845,1.845,0,0,0,.27-.417,2.285,2.285,0,0,0,.165-.493,3.254,3.254,0,0,0,.067-.537c.014-.418.014-.827,0-1.229" transform="translate(-156.863 -61.896)" fill="#fafafa"/>
      </g>
    </g>
    <g id="Group_390" data-name="Group 390">
      <g id="Group_389" data-name="Group 389" clip-path="url(#clip-path)">
        <path id="Path_1025" data-name="Path 1025" d="M225.756.215a10.635,10.635,0,0,1,2.835,1.064,8.145,8.145,0,0,1,2.253,1.791,6.457,6.457,0,0,1,1.33,2.408,5.715,5.715,0,0,1,.058,2.915,5.8,5.8,0,0,1-.892,2.134,6.931,6.931,0,0,1-1.4,1.468,11.351,11.351,0,0,1-1.663,1.074q-.876.461-1.654.875a9.318,9.318,0,0,0-1.41.912,2.672,2.672,0,0,0-.882,1.181,1.265,1.265,0,0,1-.423.543.746.746,0,0,1-.632.129l-2.431-.539a.9.9,0,0,1-.567-.393.726.726,0,0,1-.1-.66,5.712,5.712,0,0,1,1.012-2.075,8.035,8.035,0,0,1,1.495-1.447,11.531,11.531,0,0,1,1.708-1.047q.886-.442,1.65-.86a7.464,7.464,0,0,0,1.3-.885,2.069,2.069,0,0,0,.689-1.14,2.476,2.476,0,0,0-.581-2.225,4.467,4.467,0,0,0-2.545-1.385,4.3,4.3,0,0,0-4.6,1.833,1.854,1.854,0,0,1-.452.453.838.838,0,0,1-.631.045l-2.59-.573a.72.72,0,0,1-.452-.3.681.681,0,0,1-.1-.558,5.06,5.06,0,0,1,1.194-2.134A8,8,0,0,1,219.506,1.1a9.7,9.7,0,0,1,2.935-.977,8.537,8.537,0,0,1,3.315.1m-2.742,18.448a.895.895,0,0,1,.671,1.054l-.623,2.814a.9.9,0,0,1-1.055.673l-2.75-.609a.9.9,0,0,1-.673-1.054l.623-2.815a.894.894,0,0,1,1.055-.671Z" transform="translate(-92.172 0)" fill="#27debf"/>
        <path id="Path_1026" data-name="Path 1026" d="M234.575,47.212a7.339,7.339,0,0,1,2.09-.044,5.659,5.659,0,0,1,1.9.57,4.478,4.478,0,0,1,1.468,1.2,3.937,3.937,0,0,1,.784,1.853,4.018,4.018,0,0,1-.026,1.6,4.786,4.786,0,0,1-.521,1.3,7.84,7.84,0,0,1-.792,1.114q-.442.52-.835.984a6.41,6.41,0,0,0-.67.947,1.832,1.832,0,0,0-.263.982.882.882,0,0,1-.132.456.517.517,0,0,1-.372.244l-1.7.278a.625.625,0,0,1-.465-.108.5.5,0,0,1-.236-.4,3.933,3.933,0,0,1,.119-1.589,5.468,5.468,0,0,1,.588-1.31,7.951,7.951,0,0,1,.827-1.109q.455-.508.838-.974a5.114,5.114,0,0,0,.608-.9,1.43,1.43,0,0,0,.15-.907A1.71,1.71,0,0,0,237,50.126a3.084,3.084,0,0,0-1.986-.237,2.971,2.971,0,0,0-2.479,2.353,1.286,1.286,0,0,1-.174.406.575.575,0,0,1-.393.19l-1.807.3a.5.5,0,0,1-.369-.077.472.472,0,0,1-.2-.334,3.49,3.49,0,0,1,.22-1.674,5.507,5.507,0,0,1,.986-1.673A6.708,6.708,0,0,1,232.424,48a5.9,5.9,0,0,1,2.151-.787m2.963,12.528a.617.617,0,0,1,.7.5l.321,1.965a.616.616,0,0,1-.5.7l-1.919.314a.617.617,0,0,1-.7-.5l-.321-1.964a.618.618,0,0,1,.5-.7Z" transform="translate(-97.929 -20.098)" fill="#27debf"/>
        <g id="Group_385" data-name="Group 385" transform="translate(131.633 27.016)" opacity="0.2">
          <g id="Group_384" data-name="Group 384">
            <g id="Group_383" data-name="Group 383" clip-path="url(#clip-path-8)">
              <path id="Path_1027" data-name="Path 1027" d="M234.575,47.212a7.339,7.339,0,0,1,2.09-.044,5.659,5.659,0,0,1,1.9.57,4.478,4.478,0,0,1,1.468,1.2,3.937,3.937,0,0,1,.784,1.853,4.018,4.018,0,0,1-.026,1.6,4.786,4.786,0,0,1-.521,1.3,7.84,7.84,0,0,1-.792,1.114q-.442.52-.835.984a6.41,6.41,0,0,0-.67.947,1.832,1.832,0,0,0-.263.982.882.882,0,0,1-.132.456.517.517,0,0,1-.372.244l-1.7.278a.625.625,0,0,1-.465-.108.5.5,0,0,1-.236-.4,3.933,3.933,0,0,1,.119-1.589,5.468,5.468,0,0,1,.588-1.31,7.951,7.951,0,0,1,.827-1.109q.455-.508.838-.974a5.114,5.114,0,0,0,.608-.9,1.43,1.43,0,0,0,.15-.907A1.71,1.71,0,0,0,237,50.126a3.084,3.084,0,0,0-1.986-.237,2.971,2.971,0,0,0-2.479,2.353,1.286,1.286,0,0,1-.174.406.575.575,0,0,1-.393.19l-1.807.3a.5.5,0,0,1-.369-.077.472.472,0,0,1-.2-.334,3.49,3.49,0,0,1,.22-1.674,5.507,5.507,0,0,1,.986-1.673A6.708,6.708,0,0,1,232.424,48a5.9,5.9,0,0,1,2.151-.787m2.963,12.528a.617.617,0,0,1,.7.5l.321,1.965a.616.616,0,0,1-.5.7l-1.919.314a.617.617,0,0,1-.7-.5l-.321-1.964a.618.618,0,0,1,.5-.7Z" transform="translate(-229.562 -47.114)"/>
            </g>
          </g>
        </g>
        <path id="Path_1028" data-name="Path 1028" d="M263.319,41.972a.732.732,0,0,1,.171,1.01L262.124,44.9a.734.734,0,0,1-1.009.171l-1.878-1.335a.731.731,0,0,1-.17-1.009l1.365-1.922a.733.733,0,0,1,1.009-.17Zm7.944-13.023a8.723,8.723,0,0,1,1.8,1.7,6.674,6.674,0,0,1,1.127,2.067,5.282,5.282,0,0,1,.234,2.237,4.662,4.662,0,0,1-.884,2.215,4.743,4.743,0,0,1-1.352,1.322,5.632,5.632,0,0,1-1.521.662,9.365,9.365,0,0,1-1.6.28q-.807.067-1.525.131a7.71,7.71,0,0,0-1.353.239,2.185,2.185,0,0,0-1.04.608,1.051,1.051,0,0,1-.492.275.611.611,0,0,1-.517-.1L262.482,39.4a.739.739,0,0,1-.3-.477.593.593,0,0,1,.131-.53,4.672,4.672,0,0,1,1.424-1.24,6.575,6.575,0,0,1,1.587-.615,9.547,9.547,0,0,1,1.62-.245q.807-.049,1.516-.122a6.031,6.031,0,0,0,1.264-.252,1.7,1.7,0,0,0,.882-.639,2.024,2.024,0,0,0,.271-1.862,3.65,3.65,0,0,0-1.475-1.854,3.521,3.521,0,0,0-4.05-.084,1.518,1.518,0,0,1-.485.2.69.69,0,0,1-.49-.167l-1.769-1.258a.589.589,0,0,1-.245-.372.555.555,0,0,1,.106-.45,4.143,4.143,0,0,1,1.579-1.228,6.519,6.519,0,0,1,2.226-.587,7.912,7.912,0,0,1,2.521.2,6.993,6.993,0,0,1,2.469,1.13" transform="translate(-110.459 -11.771)" fill="#27debf"/>
        <g id="Group_388" data-name="Group 388" transform="translate(148.476 15.822)" opacity="0.6">
          <g id="Group_387" data-name="Group 387">
            <g id="Group_386" data-name="Group 386" clip-path="url(#clip-path-9)">
              <path id="Path_1029" data-name="Path 1029" d="M263.319,41.972a.732.732,0,0,1,.171,1.01L262.124,44.9a.734.734,0,0,1-1.009.171l-1.878-1.335a.731.731,0,0,1-.17-1.009l1.365-1.922a.733.733,0,0,1,1.009-.17Zm7.944-13.023a8.723,8.723,0,0,1,1.8,1.7,6.674,6.674,0,0,1,1.127,2.067,5.282,5.282,0,0,1,.234,2.237,4.662,4.662,0,0,1-.884,2.215,4.743,4.743,0,0,1-1.352,1.322,5.632,5.632,0,0,1-1.521.662,9.365,9.365,0,0,1-1.6.28q-.807.067-1.525.131a7.71,7.71,0,0,0-1.353.239,2.185,2.185,0,0,0-1.04.608,1.051,1.051,0,0,1-.492.275.611.611,0,0,1-.517-.1L262.482,39.4a.739.739,0,0,1-.3-.477.593.593,0,0,1,.131-.53,4.672,4.672,0,0,1,1.424-1.24,6.575,6.575,0,0,1,1.587-.615,9.547,9.547,0,0,1,1.62-.245q.807-.049,1.516-.122a6.031,6.031,0,0,0,1.264-.252,1.7,1.7,0,0,0,.882-.639,2.024,2.024,0,0,0,.271-1.862,3.65,3.65,0,0,0-1.475-1.854,3.521,3.521,0,0,0-4.05-.084,1.518,1.518,0,0,1-.485.2.69.69,0,0,1-.49-.167l-1.769-1.258a.589.589,0,0,1-.245-.372.555.555,0,0,1,.106-.45,4.143,4.143,0,0,1,1.579-1.228,6.519,6.519,0,0,1,2.226-.587,7.912,7.912,0,0,1,2.521.2,6.993,6.993,0,0,1,2.469,1.13" transform="translate(-258.935 -27.592)" fill="#fff"/>
            </g>
          </g>
        </g>
      </g>
    </g>
    <g id="Group_398" data-name="Group 398">
      <g id="Group_397" data-name="Group 397" clip-path="url(#clip-path)">
        <path id="Path_1030" data-name="Path 1030" d="M176.96,92.445H156.589V43.083A16.163,16.163,0,0,1,172.752,26.92h1.882A16.163,16.163,0,0,1,190.8,43.083V78.608A13.837,13.837,0,0,1,176.96,92.445" transform="translate(-66.799 -11.484)" fill="#263238"/>
        <path id="Path_1031" data-name="Path 1031" d="M152.052,348.42a37.977,37.977,0,0,0-.59,6.2c-.072,3.761-.763,5.1-.854,8.182-.1,3.526.5,4.846,1.936,6.828s5.187,3.781,6.774.43c1.607-3.391,1.383-5.545.876-9-.525-3.576-.591-5.552-.9-8.279-.267-2.4-.588-4.231-.588-4.231Z" transform="translate(-64.243 -148.633)" fill="#263238"/>
        <path id="Path_1032" data-name="Path 1032" d="M162.536,304.684l-12.388-.224c.184,8.269,1.5,17.448,1.713,25.208.041,1.461-.037,11.349.514,14.354.827,4.515,6.187,3.905,6.471,1.2s-.345-14.246-.328-15.437c-.047-4.976,2.285-13.376,3.508-22.308.06-.439.452-2.368.509-2.8" transform="translate(-64.052 -129.88)" fill="#ffa8a7"/>
        <path id="Path_1033" data-name="Path 1033" d="M198.268,337.149s-.489-.263-.59.259c-.12.621-.3,1.9-.557,2.92a14.832,14.832,0,0,0-.442,4.9c.214,1.154,2.906,2.641,4.654,3.177a14.245,14.245,0,0,1,5.759,3.413,13.829,13.829,0,0,0,8.008,3.149c3.009-.022,5.107-1,6.1-2.614,1.036-1.683-.9-1.807-4.343-4.039-.781-.506-1.67-1.079-2.67-1.733-5.449-3.559-7.443-5.466-8.985-9.026Z" transform="translate(-83.871 -143.797)" fill="#263238"/>
        <path id="Path_1034" data-name="Path 1034" d="M204.158,315.291c-.092-2.56,1.665-24.282,1.665-24.282l-11.765,5.363c2.52,15.036,3.056,18.582,3.1,21.042a2.157,2.157,0,0,0-.066.63c.011,2.922,3.307,4.5,5.879,6.445a47.961,47.961,0,0,0,6.956,4.54c1.869.939,5.663,1.025,6.133-.177a88.685,88.685,0,0,1-10.171-8.7c-1.188-1.3-1.64-2.306-1.732-4.866" transform="translate(-82.783 -124.142)" fill="#ffa8a7"/>
        <path id="Path_1035" data-name="Path 1035" d="M154.924,164.138c-4.516,9.919-4.516,17.589-3.77,30.244.685,11.609,1.776,21.828,1.776,21.828-.175,2.061-3.038,6.08-3.408,15.183a184.182,184.182,0,0,0,.587,19.329s6.427,3.563,11.179-.031c0,0,4.586-21.9,5.929-32.551,1.173-9.3,3.211-21.175,3.211-21.175l4.317,21.125a55.261,55.261,0,0,0-2.026,9.176c-.607,6.266,2.9,18.57,2.9,18.57s6.641,1.982,10.7-1.615c0,0,1.517-20.005,2.083-27.554.757-10.107-.836-37.473-2.084-51.959Z" transform="translate(-63.752 -70.02)" fill="#455a64"/>
        <path id="Path_1036" data-name="Path 1036" d="M186.039,206.228l1.784-15.9s7.993-1.068,11.614-4.473a13.121,13.121,0,0,1-9.419,5.953l-2.58,14.8,2.916,20.749Z" transform="translate(-79.363 -79.284)" fill="#263238"/>
        <path id="Path_1037" data-name="Path 1037" d="M222.47,129.566a67.462,67.462,0,0,0,.436-8.746c-.175-2.524-.626-2.934-4.154-7.406-4.763-6.037-8.828-11.462-13.128-16.861a10.26,10.26,0,0,0-9.448-4.272c-2.2.122,2.1,10.713,4.262,16.979L212.8,122.552a2.65,2.65,0,0,1,.491,1.815l-.759,11.316,3.7,4.95s5.6-4.832,6.241-11.068" transform="translate(-83.426 -39.355)" fill="#ffa8a7"/>
        <path id="Path_1038" data-name="Path 1038" d="M167.053,92.645h0c-2.39.165-6.736.547-6.736.547-2.508,1.4-3.142,2.547-3.608,5.879-.2,1.416.956,5.2,1.948,10.57l1.882,9.962-.2,4.94c-.978,3.014-3.188,6.762-5.135,12.285a37.818,37.818,0,0,0,24.885,4.606c5.552-.713,8.491-2.057,9.47-3.384-.2-5.457-.59-8.826-.685-14.526-.04-2.395.1-4.81.2-7.566a8.857,8.857,0,0,0,1.736-11.44c-4.721-7.643-9.311-12.455-12.351-12.208Z" transform="translate(-66.207 -39.375)" fill="#27debf"/>
        <g id="Group_393" data-name="Group 393" transform="translate(88.994 52.926)" opacity="0.6">
          <g id="Group_392" data-name="Group 392">
            <g id="Group_391" data-name="Group 391" clip-path="url(#clip-path-11)">
              <path id="Path_1039" data-name="Path 1039" d="M167.053,92.645h0c-2.39.165-6.736.547-6.736.547-2.508,1.4-3.142,2.547-3.608,5.879-.2,1.416.956,5.2,1.948,10.57l1.882,9.962-.2,4.94c-.978,3.014-3.188,6.762-5.135,12.285a37.818,37.818,0,0,0,24.885,4.606c5.552-.713,8.491-2.057,9.47-3.384-.2-5.457-.59-8.826-.685-14.526-.04-2.395.1-4.81.2-7.566a8.857,8.857,0,0,0,1.736-11.44c-4.721-7.643-9.311-12.455-12.351-12.208Z" transform="translate(-155.201 -92.301)" fill="#fff"/>
            </g>
          </g>
        </g>
        <g id="Group_396" data-name="Group 396" transform="translate(100.359 72.157)" opacity="0.1">
          <g id="Group_395" data-name="Group 395">
            <g id="Group_394" data-name="Group 394" clip-path="url(#clip-path-12)">
              <path id="Path_1040" data-name="Path 1040" d="M190.113,130.346s-4.373,3.393-9.363,1.624a8.543,8.543,0,0,1-5.718-6.133s-.53,5.705,5.765,7.65a8.249,8.249,0,0,0,9.316-3.142" transform="translate(-175.021 -125.838)"/>
            </g>
          </g>
        </g>
        <path id="Path_1041" data-name="Path 1041" d="M191.581,55.15c-.188,8.278-2.875,10.325-4.221,10.913s-3.946.229-6.467-.188v4.968s2.91,3.052,2.693,5.328-4.575,2.534-7.844.306a24.852,24.852,0,0,1-4.833-4.364,1.765,1.765,0,0,1-.417-1.143V59.277s-1.381,1.464-3.827-.212a4.51,4.51,0,0,1-1.158-6.55,3.335,3.335,0,0,1,5.068.606c.729,1.429.829,2.864,1.646,2.27,2.181-1.569,1.011-5.139,3.645-6.9.006,0,.006-.006.012-.006a18.37,18.37,0,0,1,2.681-1.17c4.7-1.623,8.766-2.987,9.748-6.2,1.853,1.1,3.5,4.268,3.275,14.035" transform="translate(-70.202 -17.539)" fill="#ffa8a7"/>
        <path id="Path_1042" data-name="Path 1042" d="M195.811,75.787a1.087,1.087,0,1,1-1.087-1.087,1.086,1.086,0,0,1,1.087,1.087" transform="translate(-82.604 -31.866)" fill="#b16668"/>
        <path id="Path_1043" data-name="Path 1043" d="M192.562,62.558a1.146,1.146,0,1,1-1.2-1.134,1.164,1.164,0,0,1,1.2,1.134" transform="translate(-81.169 -26.202)" fill="#263238"/>
        <path id="Path_1044" data-name="Path 1044" d="M207.872,62.831a1.058,1.058,0,0,1-.986,1.129,1,1,0,0,1-1.094-1.03,1.042,1.042,0,1,1,2.08-.1" transform="translate(-87.788 -26.363)" fill="#263238"/>
        <path id="Path_1045" data-name="Path 1045" d="M188.922,63.882a3.733,3.733,0,0,1-3.729-3.729c0-2.536,2.613-2.536,3.729-2.536s3.729,0,3.729,2.536a3.733,3.733,0,0,1-3.729,3.729m0-5.677c-2.26,0-3.141.546-3.141,1.948a3.141,3.141,0,0,0,6.282,0c0-1.4-.881-1.948-3.141-1.948" transform="translate(-79.002 -24.579)" fill="#455a64"/>
        <path id="Path_1046" data-name="Path 1046" d="M205.433,63.882a3.733,3.733,0,0,1-3.729-3.729c0-2.536,2.613-2.536,3.729-2.536s3.729,0,3.729,2.536a3.733,3.733,0,0,1-3.729,3.729m0-5.677c-2.26,0-3.141.546-3.141,1.948a3.141,3.141,0,0,0,6.282,0c0-1.4-.881-1.948-3.141-1.948" transform="translate(-86.045 -24.579)" fill="#455a64"/>
        <path id="Path_1047" data-name="Path 1047" d="M199.211,59.943l.184,6.964,3.665-1.135Z" transform="translate(-84.981 -25.571)" fill="#f28f8f"/>
        <path id="Path_1048" data-name="Path 1048" d="M186.345,81.25c-2.662-.349-8.14-1.923-8.993-4.088a5.6,5.6,0,0,0,1.92,2.763c1.636,1.4,7.072,2.982,7.072,2.982Z" transform="translate(-75.657 -32.917)" fill="#f28f8f"/>
        <path id="Path_1049" data-name="Path 1049" d="M191.3,53.5l-2.429,1.481a1.493,1.493,0,0,1,.494-2.006,1.388,1.388,0,0,1,1.935.525" transform="translate(-80.487 -22.515)" fill="#263238"/>
        <path id="Path_1050" data-name="Path 1050" d="M208.5,55.485l-2.706-.944a1.375,1.375,0,0,1,1.778-.909,1.505,1.505,0,0,1,.928,1.854" transform="translate(-87.789 -22.845)" fill="#263238"/>
        <path id="Path_1051" data-name="Path 1051" d="M197.469,61.752a.3.3,0,0,1-.294-.3c0-.477.944-.785,1.791-.785s1.394.308,1.394.785a.294.294,0,1,1-.588,0,1.186,1.186,0,0,0-.806-.2,3.334,3.334,0,0,0-1.2.2.292.292,0,0,1-.294.292" transform="translate(-84.113 -25.881)" fill="#455a64"/>
        <path id="Path_1052" data-name="Path 1052" d="M180.023,61.159l-.033,0-6.555-.6a3.229,3.229,0,0,0-1.074-.7l7.694.71a.294.294,0,0,1-.032.586" transform="translate(-73.528 -25.537)" fill="#455a64"/>
        <path id="Path_1053" data-name="Path 1053" d="M127.939,52.921c2.143-2.864,3.605-5.028,5.561-7.482,1.111-1.393,1.821-2.388,2.89-3.819.735-.985,1.167-1.815,1.982-2.12a6.857,6.857,0,0,0,2.392-1.642,14.9,14.9,0,0,0,1.131-1.443,21.541,21.541,0,0,1,4.33-4.361c1.725-1.3,3.642-2.291,5.412-3.53,1.056-.739,2.189-1.967.9-3.113a3.013,3.013,0,0,0-1.373-.656c-3.12-.682-5.842.394-8.895,1.174a25.322,25.322,0,0,0-3.885,1.313,6.732,6.732,0,0,0-1.721.987A8.992,8.992,0,0,0,134.9,30.76c-1.372,2.417-4.215,4.551-6.215,6.432-2.347,2.208-4.444,4.232-7.122,6.668-2.409,2.192-4.767,4.213-6.977,6.607-1.828,1.981-1.163,3.53-.9,4.065,1.49,3.064,3.158,4.162,5.15,6.061,3.451,3.288,15.339,12.746,19.283,15.867a6.491,6.491,0,0,1,1.933,2.523l.753,1.749c4.5.827,7.5-5.922,3.772-14.049a8.471,8.471,0,0,0-2.733-3.295c-4.693-3.423-13.9-10.468-13.9-10.468" transform="translate(-48.354 -10.467)" fill="#ffa8a7"/>
        <path id="Path_1054" data-name="Path 1054" d="M134.705,74.037a11.87,11.87,0,0,1-5.494,3.782s2.868.732,6.793-2.791Z" transform="translate(-55.12 -31.584)" fill="#f28f8f"/>
        <path id="Path_1055" data-name="Path 1055" d="M227.781,146.326l.015,0-.735-.634v.009a.832.832,0,0,0-.756-.084l-7.962,2.165a2.933,2.933,0,0,0-1.789,1.672l-5.73,16.531a.754.754,0,0,0,.106.845l-.006,0,.758.653v-.01a.825.825,0,0,0,.763.09l7.962-2.165a2.931,2.931,0,0,0,1.789-1.671c1.126-3.25,4.6-13.282,5.73-16.531.141-.407.072-.714-.143-.873" transform="translate(-89.904 -62.099)" fill="#455a64"/>
        <path id="Path_1056" data-name="Path 1056" d="M212.108,167.093l5.729-16.531a2.933,2.933,0,0,1,1.79-1.671l7.961-2.166c.738-.2,1.134.222.883.945-1.125,3.249-4.6,13.282-5.73,16.531a2.931,2.931,0,0,1-1.789,1.671l-7.962,2.165c-.738.2-1.133-.222-.883-.945" transform="translate(-90.451 -62.57)" fill="#27debf"/>
        <path id="Path_1057" data-name="Path 1057" d="M218.213,150.913a2.875,2.875,0,0,0-.924,1.214l-5.732,16.526a.791.791,0,0,0,.08.829l-.713-.611.007-.007a.749.749,0,0,1-.11-.843l5.732-16.533a2.811,2.811,0,0,1,.851-1.149Z" transform="translate(-89.904 -64.133)" fill="#37474f"/>
        <path id="Path_1058" data-name="Path 1058" d="M228.809,157.838c-.561,1.684-2.562,2.807-5.85,3.587s-5.111,4.271-4.579,5.334,5.845,2.05,7.971,1.746,4.264-3.376,4.907-4.327,1.393-7.591.71-8.5a2.591,2.591,0,0,0-2.119-.771Z" transform="translate(-93.12 -66.078)" fill="#f28f8f"/>
      </g>
    </g>
  </g>
</svg>
