<svg xmlns="http://www.w3.org/2000/svg" width="407.808" height="240.167" viewBox="0 0 407.808 240.167">
  <g id="Group_44" data-name="Group 44" transform="translate(-128.512 -56.669)" opacity="0.09">
    <g id="Group_42" data-name="Group 42" transform="translate(135.869 61.057)">
      <g id="Group_24" data-name="Group 24" transform="translate(237.018)">
        <path id="Path_97" data-name="Path 97" d="M424.586,114.071h-5.734a2.68,2.68,0,0,1-2.677-2.676v-6.854a14.275,14.275,0,0,1-8.6-13.61c0-8.877,7.116-13.525,14.146-13.53h.01a15.043,15.043,0,0,1,9.7,3.453,12.846,12.846,0,0,1,4.437,10.077,14.275,14.275,0,0,1-8.6,13.61V111.4A2.68,2.68,0,0,1,424.586,114.071Zm-2.857-35.748h-.01c-6.572,0-13.224,4.336-13.224,12.608a13.3,13.3,0,0,0,8.287,12.857.46.46,0,0,1,.314.437V111.4a1.757,1.757,0,0,0,1.755,1.754h5.734a1.757,1.757,0,0,0,1.755-1.754v-7.169a.462.462,0,0,1,.314-.437c.338-.113,8.287-2.9,8.287-12.857a11.949,11.949,0,0,0-4.116-9.377A14.108,14.108,0,0,0,421.728,78.324Z" transform="translate(-394.668 -62.675)" fill="#616161"/>
        <path id="Path_98" data-name="Path 98" d="M424.657,120.741h-4.213a2.218,2.218,0,0,1-2.215-2.215v-2.058a.46.46,0,0,1,.461-.461h7.723a.461.461,0,0,1,.461.461v2.058A2.219,2.219,0,0,1,424.657,120.741Zm-5.507-3.812v1.6a1.294,1.294,0,0,0,1.293,1.293h4.213a1.3,1.3,0,0,0,1.294-1.293v-1.6Z" transform="translate(-395.5 -65.688)" fill="#616161"/>
        <path id="Path_99" data-name="Path 99" d="M422.73,123.727a3.112,3.112,0,0,1-3.035-3.124.46.46,0,0,1,.46-.486h4.987a.461.461,0,0,1,.461.458,3.7,3.7,0,0,1-.916,2.4A2.647,2.647,0,0,1,422.73,123.727Zm-2.035-2.688a2.066,2.066,0,0,0,2.035,1.766,1.88,1.88,0,0,0,1.91-1.766Z" transform="translate(-395.615 -66.009)" fill="#616161"/>
        <path id="Path_100" data-name="Path 100" d="M424.574,115.279a.461.461,0,0,1-.461-.461V101.552a19.974,19.974,0,0,1-3.435,0v13.266a.461.461,0,1,1-.922,0V101.433a6.9,6.9,0,0,1-2.05-.636,2.337,2.337,0,0,1-1.461-2.073,2.665,2.665,0,0,1,2.482-2.51,1.69,1.69,0,0,1,1.417.76,3.863,3.863,0,0,1,.535,2.2v1.447a18.753,18.753,0,0,0,3.435,0V99.178a3.863,3.863,0,0,1,.535-2.2,1.694,1.694,0,0,1,1.418-.76,2.666,2.666,0,0,1,2.481,2.51,2.337,2.337,0,0,1-1.461,2.073,6.9,6.9,0,0,1-2.05.636v13.385A.46.46,0,0,1,424.574,115.279Zm1.492-18.143a.764.764,0,0,0-.66.364,2.919,2.919,0,0,0-.371,1.678V100.5a5.835,5.835,0,0,0,1.621-.514,1.542,1.542,0,0,0,.969-1.257A1.757,1.757,0,0,0,426.065,97.136Zm-7.34,0a1.756,1.756,0,0,0-1.56,1.589,1.542,1.542,0,0,0,.969,1.257,5.835,5.835,0,0,0,1.621.514V99.178a2.925,2.925,0,0,0-.371-1.679A.765.765,0,0,0,418.726,97.136Z" transform="translate(-395.345 -64.143)" fill="#616161"/>
        <path id="Path_101" data-name="Path 101" d="M401.106,110.5a.461.461,0,0,1-.258-.844l5.6-3.78a.461.461,0,0,1,.515.764l-5.6,3.78A.457.457,0,0,1,401.106,110.5Z" transform="translate(-394.128 -64.891)" fill="#616161"/>
        <path id="Path_102" data-name="Path 102" d="M406.71,76.85a.466.466,0,0,1-.258-.078l-5.6-3.781a.461.461,0,0,1,.515-.764l5.6,3.78a.461.461,0,0,1-.257.844Z" transform="translate(-394.128 -62.265)" fill="#616161"/>
        <path id="Path_103" data-name="Path 103" d="M402.118,91.943h-8.081a.461.461,0,1,1,0-.922h8.081a.461.461,0,0,1,0,.922Z" transform="translate(-393.576 -63.738)" fill="#616161"/>
        <path id="Path_104" data-name="Path 104" d="M444.361,110.5a.456.456,0,0,1-.257-.079l-5.6-3.78a.461.461,0,0,1,.514-.764l5.6,3.78a.461.461,0,0,1-.257.844Z" transform="translate(-397.067 -64.891)" fill="#616161"/>
        <path id="Path_105" data-name="Path 105" d="M438.757,76.85a.461.461,0,0,1-.257-.844l5.6-3.78a.461.461,0,0,1,.514.764l-5.6,3.781A.461.461,0,0,1,438.757,76.85Z" transform="translate(-397.067 -62.265)" fill="#616161"/>
        <path id="Path_106" data-name="Path 106" d="M451.221,91.943H443.14a.461.461,0,0,1,0-.922h8.081a.461.461,0,1,1,0,.922Z" transform="translate(-397.409 -63.738)" fill="#616161"/>
        <path id="Path_107" data-name="Path 107" d="M422.877,70.431a.461.461,0,0,1-.461-.461V61.889a.461.461,0,1,1,.922,0V69.97A.461.461,0,0,1,422.877,70.431Z" transform="translate(-395.827 -61.428)" fill="#616161"/>
      </g>
      <g id="Group_25" data-name="Group 25" transform="translate(78.632 7.158)">
        <path id="Path_108" data-name="Path 108" d="M232.6,90.832a10.82,10.82,0,1,1,10.819-10.82A10.832,10.832,0,0,1,232.6,90.832Zm0-20.718a9.9,9.9,0,1,0,9.9,9.9A9.909,9.909,0,0,0,232.6,70.114Z" transform="translate(-221.781 -69.192)" fill="#616161"/>
        <path id="Path_109" data-name="Path 109" d="M232.885,87.759a7.463,7.463,0,1,1,7.462-7.463A7.471,7.471,0,0,1,232.885,87.759Zm0-14a6.541,6.541,0,1,0,6.54,6.541A6.549,6.549,0,0,0,232.885,73.755Z" transform="translate(-222.065 -69.476)" fill="#616161"/>
        <path id="Path_110" data-name="Path 110" d="M254.179,104.421a2.771,2.771,0,0,1-1.967-.814L240.466,91.862a.462.462,0,0,1,0-.652l3.284-3.284a.474.474,0,0,1,.652,0l11.745,11.746a2.782,2.782,0,0,1-1.967,4.749ZM241.444,91.535l11.419,11.419a1.861,1.861,0,1,0,2.631-2.631L244.076,88.9Z" transform="translate(-223.229 -70.644)" fill="#616161"/>
        <path id="Path_111" data-name="Path 111" d="M241.072,91.5a.463.463,0,0,1-.326-.135L239.7,90.326a.461.461,0,0,1,0-.652l2.51-2.51a.461.461,0,0,1,.652,0l1.042,1.042a.461.461,0,0,1,0,.652l-2.51,2.51A.459.459,0,0,1,241.072,91.5Zm-.39-1.5.39.39,1.858-1.858-.389-.39Z" transform="translate(-223.169 -70.584)" fill="#616161"/>
      </g>
      <g id="Group_28" data-name="Group 28" transform="translate(315.812 82.52)">
        <path id="Path_112" data-name="Path 112" d="M529.4,190.694H481.275a2.236,2.236,0,0,1-2.234-2.234V153.168a2.236,2.236,0,0,1,2.234-2.234H529.4a2.236,2.236,0,0,1,2.234,2.234V188.46A2.236,2.236,0,0,1,529.4,190.694Zm-48.126-38.838a1.314,1.314,0,0,0-1.312,1.312V188.46a1.314,1.314,0,0,0,1.312,1.312H529.4a1.314,1.314,0,0,0,1.312-1.312V153.168a1.314,1.314,0,0,0-1.312-1.312Z" transform="translate(-479.041 -150.934)" fill="#616161"/>
        <path id="Path_113" data-name="Path 113" d="M528.894,188.254H482.2a.461.461,0,0,1-.461-.461V154.286a.461.461,0,0,1,.461-.461h46.691a.461.461,0,0,1,.461.461v33.507A.461.461,0,0,1,528.894,188.254Zm-46.23-.922h45.769V154.747H482.664Z" transform="translate(-479.252 -151.16)" fill="#616161"/>
        <path id="Path_114" data-name="Path 114" d="M507.525,188.267a.461.461,0,0,1-.461-.461V154.371a.461.461,0,1,1,.922,0v33.435A.461.461,0,0,1,507.525,188.267Z" transform="translate(-481.228 -151.166)" fill="#616161"/>
        <g id="Group_26" data-name="Group 26" transform="translate(5.046 6.797)">
          <path id="Path_115" data-name="Path 115" d="M498.441,159.228H484.975a.461.461,0,1,1,0-.922h13.466a.461.461,0,0,1,0,.922Z" transform="translate(-484.514 -158.306)" fill="#616161"/>
          <path id="Path_116" data-name="Path 116" d="M498.441,163.094H484.975a.461.461,0,0,1,0-.922h13.466a.461.461,0,0,1,0,.922Z" transform="translate(-484.514 -158.608)" fill="#616161"/>
          <path id="Path_117" data-name="Path 117" d="M498.441,166.96H484.975a.461.461,0,1,1,0-.922h13.466a.461.461,0,1,1,0,.922Z" transform="translate(-484.514 -158.91)" fill="#616161"/>
          <path id="Path_118" data-name="Path 118" d="M498.441,170.826H484.975a.461.461,0,1,1,0-.922h13.466a.461.461,0,0,1,0,.922Z" transform="translate(-484.514 -159.211)" fill="#616161"/>
          <path id="Path_119" data-name="Path 119" d="M503.381,174.692H484.975a.461.461,0,1,1,0-.922h18.406a.461.461,0,0,1,0,.922Z" transform="translate(-484.514 -159.513)" fill="#616161"/>
          <path id="Path_120" data-name="Path 120" d="M503.381,178.558H484.975a.461.461,0,0,1,0-.922h18.406a.461.461,0,0,1,0,.922Z" transform="translate(-484.514 -159.815)" fill="#616161"/>
          <path id="Path_121" data-name="Path 121" d="M503.381,182.424H484.975a.461.461,0,1,1,0-.922h18.406a.461.461,0,1,1,0,.922Z" transform="translate(-484.514 -160.117)" fill="#616161"/>
          <path id="Path_122" data-name="Path 122" d="M503.381,186.29H484.975a.461.461,0,1,1,0-.922h18.406a.461.461,0,0,1,0,.922Z" transform="translate(-484.514 -160.418)" fill="#616161"/>
        </g>
        <g id="Group_27" data-name="Group 27" transform="translate(28.475 6.797)">
          <path id="Path_123" data-name="Path 123" d="M528.794,159.228H510.388a.461.461,0,1,1,0-.922h18.406a.461.461,0,1,1,0,.922Z" transform="translate(-509.927 -158.306)" fill="#616161"/>
          <path id="Path_124" data-name="Path 124" d="M528.794,163.094H510.388a.461.461,0,0,1,0-.922h18.406a.461.461,0,1,1,0,.922Z" transform="translate(-509.927 -158.608)" fill="#616161"/>
          <path id="Path_125" data-name="Path 125" d="M528.794,166.96H510.388a.461.461,0,1,1,0-.922h18.406a.461.461,0,1,1,0,.922Z" transform="translate(-509.927 -158.91)" fill="#616161"/>
          <path id="Path_126" data-name="Path 126" d="M528.794,170.826H510.388a.461.461,0,1,1,0-.922h18.406a.461.461,0,1,1,0,.922Z" transform="translate(-509.927 -159.211)" fill="#616161"/>
          <path id="Path_127" data-name="Path 127" d="M528.794,174.692H510.388a.461.461,0,1,1,0-.922h18.406a.461.461,0,1,1,0,.922Z" transform="translate(-509.927 -159.513)" fill="#616161"/>
          <path id="Path_128" data-name="Path 128" d="M528.794,178.558H510.388a.461.461,0,0,1,0-.922h18.406a.461.461,0,1,1,0,.922Z" transform="translate(-509.927 -159.815)" fill="#616161"/>
          <path id="Path_129" data-name="Path 129" d="M528.794,182.424H510.388a.461.461,0,1,1,0-.922h18.406a.461.461,0,1,1,0,.922Z" transform="translate(-509.927 -160.117)" fill="#616161"/>
          <path id="Path_130" data-name="Path 130" d="M528.794,186.29H510.388a.461.461,0,1,1,0-.922h18.406a.461.461,0,1,1,0,.922Z" transform="translate(-509.927 -160.418)" fill="#616161"/>
        </g>
        <path id="Path_131" data-name="Path 131" d="M504.923,171.349a.458.458,0,0,1-.2-.045l-2.462-1.172L499.8,171.3a.46.46,0,0,1-.658-.416V154.234a.46.46,0,0,1,.461-.461h5.319a.46.46,0,0,1,.461.461v16.654a.46.46,0,0,1-.461.461Zm-2.66-2.189a.452.452,0,0,1,.2.045l2,.952V154.695h-4.4v15.463l2-.952A.451.451,0,0,1,502.263,169.16Z" transform="translate(-480.61 -151.156)" fill="#616161"/>
      </g>
      <g id="Group_29" data-name="Group 29" transform="translate(134.15 59.507)">
        <path id="Path_132" data-name="Path 132" d="M309.41,154.6a58.223,58.223,0,0,1-14.63-1.671.46.46,0,0,1-.333-.443v-13.3a.462.462,0,0,1,.343-.446,63.648,63.648,0,0,1,14.62-1.668,62.786,62.786,0,0,1,14.565,1.669.46.46,0,0,1,.342.445v13.3a.462.462,0,0,1-.332.443A57.453,57.453,0,0,1,309.41,154.6Zm-14.041-2.467a59.5,59.5,0,0,0,14.041,1.545,58.8,58.8,0,0,0,13.985-1.544V139.552A63.317,63.317,0,0,0,309.41,138a64,64,0,0,0-14.041,1.553Zm28.487.354h0Z" transform="translate(-282.972 -126.84)" fill="#616161"/>
        <path id="Path_133" data-name="Path 133" d="M293.936,141.952a.476.476,0,0,1-.173-.034l-11.475-4.66a.461.461,0,0,1,0-.856l26.3-10.4a.453.453,0,0,1,.342,0l25.6,10.4a.461.461,0,0,1,0,.856l-11.476,4.536a.46.46,0,0,1-.63-.429v-2.681a63.316,63.316,0,0,0-13.985-1.552,64,64,0,0,0-14.041,1.553v2.805a.461.461,0,0,1-.461.461ZM283.7,136.836l9.775,3.97v-2.481a.462.462,0,0,1,.343-.446,63.647,63.647,0,0,1,14.62-1.668A62.787,62.787,0,0,1,323,137.88a.46.46,0,0,1,.342.445v2.363l9.774-3.864-24.36-9.893Z" transform="translate(-282 -125.973)" fill="#616161"/>
        <path id="Path_134" data-name="Path 134" d="M332.912,157.536a.461.461,0,0,1-.461-.461v-22.8a.461.461,0,0,1,.922,0v22.8A.461.461,0,0,1,332.912,157.536Z" transform="translate(-285.938 -126.585)" fill="#616161"/>
        <path id="Path_135" data-name="Path 135" d="M332.641,169.153a4.5,4.5,0,0,1-2.69-.881.463.463,0,0,1-.186-.365c-.03-2.255.834-5.061,1.886-6.124a1.344,1.344,0,0,1,2.106,0c1.049,1.063,1.912,3.868,1.884,6.124a.46.46,0,0,1-.207.378A5.054,5.054,0,0,1,332.641,169.153Zm-1.954-1.493a3.817,3.817,0,0,0,4.032-.014c-.039-1.942-.782-4.37-1.618-5.217-.3-.305-.491-.305-.794,0C331.468,163.279,330.722,165.718,330.687,167.66Zm4.494.241h0Z" transform="translate(-285.728 -128.728)" fill="#616161"/>
        <path id="Path_136" data-name="Path 136" d="M332.814,161.78a1.621,1.621,0,1,1,1.622-1.621A1.622,1.622,0,0,1,332.814,161.78Zm0-2.321a.7.7,0,1,0,.7.7A.7.7,0,0,0,332.814,159.46Z" transform="translate(-285.84 -128.515)" fill="#616161"/>
      </g>
      <g id="Group_31" data-name="Group 31" transform="translate(19.351 45.982)">
        <path id="Path_137" data-name="Path 137" d="M189.437,141.5a.457.457,0,0,1-.31-.121l-7.405-6.735H164.055a6.583,6.583,0,0,1-6.574-6.575V117.877a6.582,6.582,0,0,1,6.574-6.574h25.937a6.583,6.583,0,0,1,6.575,6.574v10.189a6.583,6.583,0,0,1-6.575,6.575H189.9v6.395a.462.462,0,0,1-.275.421A.473.473,0,0,1,189.437,141.5Zm-25.381-29.273a5.659,5.659,0,0,0-5.652,5.652v10.189a5.659,5.659,0,0,0,5.652,5.653H181.9a.459.459,0,0,1,.31.12l6.765,6.154v-5.813a.461.461,0,0,1,.461-.461h.556a5.66,5.66,0,0,0,5.653-5.653V117.877a5.66,5.66,0,0,0-5.653-5.652Z" transform="translate(-157.481 -111.303)" fill="#616161"/>
        <g id="Group_30" data-name="Group 30" transform="translate(7.04 9.112)">
          <path id="Path_138" data-name="Path 138" d="M167.987,126.925a2.87,2.87,0,1,1,2.869-2.869A2.872,2.872,0,0,1,167.987,126.925Zm0-4.817a1.948,1.948,0,1,0,1.947,1.948A1.95,1.95,0,0,0,167.987,122.108Z" transform="translate(-165.117 -121.186)" fill="#616161"/>
          <path id="Path_139" data-name="Path 139" d="M178.436,126.925a2.87,2.87,0,1,1,2.869-2.869A2.872,2.872,0,0,1,178.436,126.925Zm0-4.817a1.948,1.948,0,1,0,1.947,1.948A1.95,1.95,0,0,0,178.436,122.108Z" transform="translate(-165.933 -121.186)" fill="#616161"/>
          <path id="Path_140" data-name="Path 140" d="M188.885,126.925a2.87,2.87,0,1,1,2.869-2.869A2.872,2.872,0,0,1,188.885,126.925Zm0-4.817a1.948,1.948,0,1,0,1.947,1.948A1.95,1.95,0,0,0,188.885,122.108Z" transform="translate(-166.748 -121.186)" fill="#616161"/>
        </g>
      </g>
      <g id="Group_32" data-name="Group 32" transform="translate(252.663 112.702)">
        <path id="Path_141" data-name="Path 141" d="M413.406,201.594a2.861,2.861,0,1,1,2.022-.838h0A2.84,2.84,0,0,1,413.406,201.594Zm0-4.8a1.937,1.937,0,0,0-1.37,3.307,1.985,1.985,0,0,0,2.74,0h0a1.937,1.937,0,0,0-1.37-3.307Z" transform="translate(-410.546 -184.625)" fill="#616161"/>
        <path id="Path_142" data-name="Path 142" d="M419.383,199.27l-.029,0a.461.461,0,0,1-.431-.489,5.31,5.31,0,0,0-5.68-5.679.461.461,0,0,1-.057-.92,6.23,6.23,0,0,1,6.657,6.657A.46.46,0,0,1,419.383,199.27Z" transform="translate(-410.718 -184.335)" fill="#616161"/>
        <path id="Path_143" data-name="Path 143" d="M423,198.964h-.018a.462.462,0,0,1-.443-.478,8.944,8.944,0,0,0-9.305-9.305.428.428,0,0,1-.479-.443.461.461,0,0,1,.443-.478A9.867,9.867,0,0,1,423.46,198.52.461.461,0,0,1,423,198.964Z" transform="translate(-410.718 -184.03)" fill="#616161"/>
        <path id="Path_144" data-name="Path 144" d="M427.222,198.607h-.012a.463.463,0,0,1-.449-.474A13.159,13.159,0,0,0,413.227,184.6h-.013a.461.461,0,0,1-.013-.922,14.082,14.082,0,0,1,14.482,14.481A.462.462,0,0,1,427.222,198.607Z" transform="translate(-410.718 -183.672)" fill="#616161"/>
      </g>
      <g id="Group_33" data-name="Group 33" transform="translate(363.622 149.27)">
        <path id="Path_145" data-name="Path 145" d="M545.516,246.154a8.2,8.2,0,1,1,8.2-8.2A8.212,8.212,0,0,1,545.516,246.154Zm0-15.485a7.282,7.282,0,1,0,7.281,7.282A7.29,7.29,0,0,0,545.516,230.669Z" transform="translate(-531.4 -223.836)" fill="#616161"/>
        <path id="Path_146" data-name="Path 146" d="M543.1,251.565a.352.352,0,0,1-.063,0,14.218,14.218,0,0,1-6.6-2.735.464.464,0,0,1-.179-.308.459.459,0,0,1,.1-.343l1.217-1.557-1.719-1.72-1.557,1.216a.445.445,0,0,1-.344.095.466.466,0,0,1-.308-.179,14.245,14.245,0,0,1-2.733-6.6.46.46,0,0,1,.4-.52l1.96-.241v-2.431l-1.96-.241a.462.462,0,0,1-.4-.521,14.245,14.245,0,0,1,2.733-6.6.46.46,0,0,1,.308-.18.444.444,0,0,1,.344.094L535.845,230l1.719-1.719-1.217-1.558a.459.459,0,0,1-.1-.343.466.466,0,0,1,.179-.309,14.243,14.243,0,0,1,6.6-2.735.471.471,0,0,1,.344.091.462.462,0,0,1,.176.31l.241,1.963h2.431l.242-1.963a.462.462,0,0,1,.521-.4,14.229,14.229,0,0,1,6.6,2.736.46.46,0,0,1,.085.651l-1.218,1.558,1.72,1.719,1.556-1.217a.45.45,0,0,1,.344-.094.46.46,0,0,1,.308.18,14.249,14.249,0,0,1,2.734,6.6.462.462,0,0,1-.091.345.457.457,0,0,1-.31.177l-1.96.241v2.431l1.96.241a.46.46,0,0,1,.4.521,14.248,14.248,0,0,1-2.734,6.6.466.466,0,0,1-.309.179.453.453,0,0,1-.343-.095l-1.556-1.216-1.72,1.72,1.218,1.557a.46.46,0,0,1-.085.651,14.212,14.212,0,0,1-6.6,2.735.46.46,0,0,1-.521-.4l-.242-1.963H543.8l-.241,1.963a.459.459,0,0,1-.457.4Zm.289-3.29h3.248a.46.46,0,0,1,.457.406l.233,1.894a13.278,13.278,0,0,0,5.329-2.209l-1.174-1.5a.458.458,0,0,1,.037-.609l2.3-2.3a.46.46,0,0,1,.609-.037l1.5,1.173a13.349,13.349,0,0,0,2.208-5.329l-1.892-.232a.461.461,0,0,1-.406-.457v-3.248a.46.46,0,0,1,.406-.457l1.892-.232a13.354,13.354,0,0,0-2.208-5.329l-1.5,1.173a.459.459,0,0,1-.609-.037l-2.3-2.3a.458.458,0,0,1-.037-.609l1.174-1.5a13.289,13.289,0,0,0-5.329-2.209l-.233,1.894a.46.46,0,0,1-.457.406h-3.248a.461.461,0,0,1-.457-.406l-.232-1.894a13.3,13.3,0,0,0-5.33,2.209l1.175,1.5a.46.46,0,0,1-.038.609l-2.3,2.3a.458.458,0,0,1-.609.037l-1.5-1.173a13.311,13.311,0,0,0-2.206,5.329l1.891.232a.46.46,0,0,1,.406.457v3.248a.461.461,0,0,1-.406.457l-1.891.232a13.305,13.305,0,0,0,2.206,5.329l1.5-1.173a.459.459,0,0,1,.609.037l2.3,2.3a.46.46,0,0,1,.038.609l-1.175,1.5a13.307,13.307,0,0,0,5.33,2.209l.232-1.894A.461.461,0,0,1,543.387,248.275Z" transform="translate(-530.899 -223.335)" fill="#616161"/>
      </g>
      <g id="Group_34" data-name="Group 34" transform="translate(162.023 18.444)">
        <path id="Path_147" data-name="Path 147" d="M326.848,104.254a8.2,8.2,0,1,1,8.2-8.2A8.212,8.212,0,0,1,326.848,104.254Zm0-15.485a7.282,7.282,0,1,0,7.282,7.282A7.29,7.29,0,0,0,326.848,88.769Z" transform="translate(-312.733 -81.934)" fill="#616161"/>
        <path id="Path_148" data-name="Path 148" d="M328.258,109.665a.46.46,0,0,1-.457-.4l-.241-1.964h-2.432l-.241,1.964a.462.462,0,0,1-.176.31.454.454,0,0,1-.345.09,14.231,14.231,0,0,1-6.6-2.735.461.461,0,0,1-.085-.652l1.217-1.557L317.178,103l-1.556,1.217a.464.464,0,0,1-.344.093.459.459,0,0,1-.308-.179,14.238,14.238,0,0,1-2.734-6.6.461.461,0,0,1,.4-.521l1.961-.241V94.334l-1.961-.241a.46.46,0,0,1-.4-.52,14.237,14.237,0,0,1,2.734-6.6.46.46,0,0,1,.652-.086l1.556,1.217,1.719-1.719-1.217-1.557a.461.461,0,0,1,.085-.652,14.242,14.242,0,0,1,6.6-2.736.454.454,0,0,1,.345.091.462.462,0,0,1,.176.309l.241,1.965h2.432l.241-1.965a.459.459,0,0,1,.177-.309.454.454,0,0,1,.344-.091,14.242,14.242,0,0,1,6.6,2.736.461.461,0,0,1,.085.652l-1.218,1.557,1.72,1.719,1.557-1.217a.46.46,0,0,1,.652.086,14.231,14.231,0,0,1,2.733,6.6.46.46,0,0,1-.4.52l-1.96.241v2.432l1.96.241a.46.46,0,0,1,.4.521,14.231,14.231,0,0,1-2.733,6.6.462.462,0,0,1-.652.086L335.51,103l-1.72,1.719,1.218,1.557a.461.461,0,0,1-.085.652,14.231,14.231,0,0,1-6.6,2.735A.37.37,0,0,1,328.258,109.665Zm-3.537-3.29h3.247a.46.46,0,0,1,.457.4l.232,1.9a13.305,13.305,0,0,0,5.33-2.21l-1.174-1.5a.46.46,0,0,1,.037-.61l2.3-2.3a.462.462,0,0,1,.609-.037l1.5,1.174a13.318,13.318,0,0,0,2.207-5.33l-1.892-.232a.46.46,0,0,1-.406-.457V93.926a.46.46,0,0,1,.406-.457l1.892-.232a13.328,13.328,0,0,0-2.207-5.33l-1.5,1.174a.458.458,0,0,1-.609-.037l-2.3-2.3a.459.459,0,0,1-.037-.609l1.174-1.5a13.305,13.305,0,0,0-5.33-2.21l-.232,1.9a.46.46,0,0,1-.457.4h-3.247a.461.461,0,0,1-.457-.4l-.232-1.9a13.314,13.314,0,0,0-5.331,2.21l1.175,1.5a.461.461,0,0,1-.038.609l-2.3,2.3a.461.461,0,0,1-.609.037l-1.5-1.174a13.316,13.316,0,0,0-2.207,5.33l1.892.232a.46.46,0,0,1,.4.457v3.247a.46.46,0,0,1-.4.457l-1.892.232a13.3,13.3,0,0,0,2.207,5.33l1.5-1.174a.461.461,0,0,1,.609.037l2.3,2.3a.462.462,0,0,1,.038.61l-1.175,1.5a13.319,13.319,0,0,0,5.331,2.21l.232-1.9A.461.461,0,0,1,324.721,106.374Z" transform="translate(-312.232 -81.434)" fill="#616161"/>
      </g>
      <g id="Group_35" data-name="Group 35" transform="translate(271.026 78.708)">
        <path id="Path_149" data-name="Path 149" d="M438.758,158.771a3.677,3.677,0,1,1,2.6-1.076A3.667,3.667,0,0,1,438.758,158.771Zm0-6.433a2.756,2.756,0,1,0,1.951.807A2.749,2.749,0,0,0,438.758,152.338Z" transform="translate(-430.824 -147.16)" fill="#616161"/>
        <path id="Path_150" data-name="Path 150" d="M437.349,162.666a.517.517,0,0,1-.065,0,8,8,0,0,1-3.71-1.536.461.461,0,0,1-.085-.652l.553-.707-.68-.68-.707.553a.443.443,0,0,1-.343.094.457.457,0,0,1-.308-.179,7.994,7.994,0,0,1-1.536-3.711.459.459,0,0,1,.09-.345.464.464,0,0,1,.31-.176l.89-.109v-.962l-.89-.11a.459.459,0,0,1-.4-.521,7.994,7.994,0,0,1,1.538-3.709.459.459,0,0,1,.651-.086l.705.552.681-.68-.552-.705a.461.461,0,0,1,.085-.652,8,8,0,0,1,3.709-1.537.454.454,0,0,1,.345.09.459.459,0,0,1,.177.31l.109.89h.962l.109-.89a.46.46,0,0,1,.521-.4,8,8,0,0,1,3.711,1.536.461.461,0,0,1,.085.652l-.553.707.68.68.708-.553a.468.468,0,0,1,.343-.094.456.456,0,0,1,.308.18,7.991,7.991,0,0,1,1.536,3.71.46.46,0,0,1-.4.521l-.89.109v.963l.89.109a.46.46,0,0,1,.4.521,8,8,0,0,1-1.538,3.71.46.46,0,0,1-.651.085l-.706-.552-.68.68.552.705a.461.461,0,0,1-.085.652,7.991,7.991,0,0,1-3.71,1.537.456.456,0,0,1-.345-.09.462.462,0,0,1-.176-.31l-.109-.89h-.962l-.11.891a.463.463,0,0,1-.457.4Zm-2.835-2.006a7.1,7.1,0,0,0,2.436,1.009l.1-.815a.461.461,0,0,1,.458-.4h1.777a.46.46,0,0,1,.457.4l.1.814a7.055,7.055,0,0,0,2.434-1.01l-.5-.645a.459.459,0,0,1,.037-.609l1.257-1.258a.463.463,0,0,1,.609-.037l.646.505a7.073,7.073,0,0,0,1.009-2.435l-.814-.1a.46.46,0,0,1-.4-.457v-1.778a.46.46,0,0,1,.4-.457l.815-.1a7.069,7.069,0,0,0-1.009-2.436l-.647.506a.461.461,0,0,1-.609-.037l-1.257-1.258a.459.459,0,0,1-.037-.609l.5-.647a7.076,7.076,0,0,0-2.435-1.009l-.1.815a.46.46,0,0,1-.457.4h-1.777a.461.461,0,0,1-.458-.4l-.1-.814a7.118,7.118,0,0,0-2.435,1.009l.5.646a.459.459,0,0,1-.037.609l-1.257,1.258a.46.46,0,0,1-.609.037l-.646-.505a7.089,7.089,0,0,0-1.01,2.436l.814.1a.461.461,0,0,1,.4.457v1.778a.46.46,0,0,1-.4.457l-.814.1a7.076,7.076,0,0,0,1.008,2.436l.648-.506a.463.463,0,0,1,.609.037l1.257,1.258a.459.459,0,0,1,.037.609Z" transform="translate(-430.464 -146.799)" fill="#616161"/>
      </g>
      <g id="Group_36" data-name="Group 36" transform="translate(12.184 90.572)">
        <path id="Path_151" data-name="Path 151" d="M158,171.64a3.678,3.678,0,1,1,2.6-1.076A3.668,3.668,0,0,1,158,171.64Zm0-6.433a2.756,2.756,0,1,0,1.95.806A2.749,2.749,0,0,0,158,165.207Z" transform="translate(-150.068 -160.028)" fill="#616161"/>
        <path id="Path_152" data-name="Path 152" d="M156.593,175.534a.369.369,0,0,1-.064,0,7.981,7.981,0,0,1-3.71-1.536.462.462,0,0,1-.086-.652l.553-.707-.679-.679-.708.553a.456.456,0,0,1-.344.093.463.463,0,0,1-.308-.179,8,8,0,0,1-1.536-3.711.465.465,0,0,1,.091-.344.458.458,0,0,1,.31-.176l.891-.11v-.962l-.89-.109a.459.459,0,0,1-.31-.177.465.465,0,0,1-.091-.344,8.006,8.006,0,0,1,1.537-3.71.461.461,0,0,1,.652-.085l.706.551.679-.679-.551-.706a.461.461,0,0,1,.085-.652,8.008,8.008,0,0,1,3.709-1.537.461.461,0,0,1,.521.4l.11.891h.962l.11-.891a.459.459,0,0,1,.521-.4,7.985,7.985,0,0,1,3.71,1.536.462.462,0,0,1,.086.652l-.553.707.68.679.707-.552a.461.461,0,0,1,.652.085,8,8,0,0,1,1.536,3.711.462.462,0,0,1-.4.521l-.891.109v.962l.891.11a.459.459,0,0,1,.4.521,8,8,0,0,1-1.537,3.709.459.459,0,0,1-.308.179.467.467,0,0,1-.344-.093l-.705-.552-.68.679.552.706a.462.462,0,0,1-.086.652,8,8,0,0,1-3.709,1.537.461.461,0,0,1-.521-.4l-.11-.89h-.962l-.11.89a.459.459,0,0,1-.457.4Zm-2.834-2.005a7.067,7.067,0,0,0,2.436,1.008l.1-.814a.46.46,0,0,1,.457-.4h1.777a.461.461,0,0,1,.458.4l.1.813a7.084,7.084,0,0,0,2.436-1.009l-.505-.645a.461.461,0,0,1,.037-.61l1.257-1.257a.463.463,0,0,1,.61-.038l.645.505a7.1,7.1,0,0,0,1.01-2.435l-.814-.1a.461.461,0,0,1-.406-.457v-1.778a.462.462,0,0,1,.406-.458l.814-.1a7.075,7.075,0,0,0-1.008-2.436l-.648.506a.462.462,0,0,1-.609-.038l-1.257-1.257a.461.461,0,0,1-.037-.61l.505-.646a7.069,7.069,0,0,0-2.436-1.009l-.1.815a.462.462,0,0,1-.458.4h-1.777a.46.46,0,0,1-.457-.4l-.1-.814a7.075,7.075,0,0,0-2.435,1.009l.505.645a.462.462,0,0,1-.038.61l-1.257,1.257a.463.463,0,0,1-.61.038l-.645-.505a7.09,7.09,0,0,0-1.009,2.435l.813.1a.462.462,0,0,1,.406.458v1.778a.461.461,0,0,1-.406.457l-.814.1a7.07,7.07,0,0,0,1.008,2.436l.648-.506a.462.462,0,0,1,.609.038l1.257,1.257a.462.462,0,0,1,.038.61Z" transform="translate(-149.707 -159.668)" fill="#616161"/>
      </g>
      <g id="Group_37" data-name="Group 37" transform="translate(202.06 46.334)">
        <path id="Path_153" data-name="Path 153" d="M361.453,122.441a.461.461,0,0,1-.461-.461v-9.834a.461.461,0,1,1,.922,0v9.834A.461.461,0,0,1,361.453,122.441Z" transform="translate(-356.075 -111.685)" fill="#616161"/>
        <path id="Path_154" data-name="Path 154" d="M365.953,117.941H356.12a.461.461,0,0,1,0-.922h9.833a.461.461,0,0,1,0,.922Z" transform="translate(-355.659 -112.101)" fill="#616161"/>
      </g>
      <g id="Group_38" data-name="Group 38" transform="translate(352.473 205.784)">
        <path id="Path_155" data-name="Path 155" d="M524.6,295.39a.46.46,0,0,1-.461-.461v-9.834a.461.461,0,1,1,.922,0v9.834A.461.461,0,0,1,524.6,295.39Z" transform="translate(-519.222 -284.634)" fill="#616161"/>
        <path id="Path_156" data-name="Path 156" d="M529.1,290.889h-9.833a.461.461,0,1,1,0-.922H529.1a.461.461,0,0,1,0,.922Z" transform="translate(-518.806 -285.05)" fill="#616161"/>
      </g>
      <g id="Group_39" data-name="Group 39" transform="translate(316.688 35.425)">
        <path id="Path_157" data-name="Path 157" d="M485.786,110.608a.461.461,0,0,1-.461-.461v-9.834a.461.461,0,1,1,.922,0v9.834A.461.461,0,0,1,485.786,110.608Z" transform="translate(-480.408 -99.852)" fill="#616161"/>
        <path id="Path_158" data-name="Path 158" d="M490.287,106.107h-9.834a.461.461,0,0,1,0-.922h9.834a.461.461,0,0,1,0,.922Z" transform="translate(-479.992 -100.268)" fill="#616161"/>
      </g>
      <g id="Group_40" data-name="Group 40" transform="translate(0 138.683)">
        <path id="Path_159" data-name="Path 159" d="M142.287,222.608a.461.461,0,0,1-.461-.461v-9.834a.461.461,0,0,1,.922,0v9.834A.461.461,0,0,1,142.287,222.608Z" transform="translate(-136.908 -211.852)" fill="#616161"/>
        <path id="Path_160" data-name="Path 160" d="M146.787,218.107h-9.834a.461.461,0,0,1,0-.922h9.834a.461.461,0,0,1,0,.922Z" transform="translate(-136.492 -212.268)" fill="#616161"/>
      </g>
      <g id="Group_41" data-name="Group 41" transform="translate(85.895 67.693)">
        <path id="Path_161" data-name="Path 161" d="M235.453,145.608a.461.461,0,0,1-.461-.461v-9.834a.461.461,0,1,1,.922,0v9.834A.461.461,0,0,1,235.453,145.608Z" transform="translate(-230.075 -134.852)" fill="#616161"/>
        <path id="Path_162" data-name="Path 162" d="M239.954,141.107H230.12a.461.461,0,0,1,0-.922h9.834a.461.461,0,1,1,0,.922Z" transform="translate(-229.659 -135.268)" fill="#616161"/>
      </g>
    </g>
    <g id="Group_43" data-name="Group 43" transform="translate(128.512 56.669)">
      <path id="Path_163" data-name="Path 163" d="M450.7,165.306h-.845a.461.461,0,0,1,0-.922h.384v-1.46a.461.461,0,1,1,.922,0v1.921A.461.461,0,0,1,450.7,165.306Zm-3.61,0H444.32a.461.461,0,0,1,0-.922h2.766a.461.461,0,0,1,0,.922Zm-5.532,0h-2.766a.461.461,0,0,1,0-.922h2.766a.461.461,0,0,1,0,.922Zm-5.532,0h-2.766a.461.461,0,0,1,0-.922h2.766a.461.461,0,0,1,0,.922Zm14.674-4.687a.461.461,0,0,1-.461-.461v-2.766a.461.461,0,1,1,.922,0v2.766A.461.461,0,0,1,450.7,160.618Zm0-5.532a.461.461,0,0,1-.461-.461V151.86a.461.461,0,1,1,.922,0v2.766A.461.461,0,0,1,450.7,155.087Zm0-5.532a.461.461,0,0,1-.461-.461v-2.766a.461.461,0,1,1,.922,0v2.766A.461.461,0,0,1,450.7,149.555Zm-184.389-.691a.46.46,0,0,1-.461-.461v-2.766a.461.461,0,0,1,.922,0V148.4A.461.461,0,0,1,266.307,148.864Zm184.389-4.84a.461.461,0,0,1-.461-.461V140.8a.461.461,0,1,1,.922,0v2.766A.461.461,0,0,1,450.7,144.023Zm-184.389-.691a.46.46,0,0,1-.461-.461v-2.766a.461.461,0,0,1,.922,0v2.766A.461.461,0,0,1,266.307,143.332Zm184.389-4.84a.461.461,0,0,1-.461-.461v-2.766a.461.461,0,1,1,.922,0v2.766A.461.461,0,0,1,450.7,138.492ZM266.307,137.8a.46.46,0,0,1-.461-.461v-2.766a.461.461,0,0,1,.922,0v2.766A.461.461,0,0,1,266.307,137.8ZM450.7,132.96a.461.461,0,0,1-.461-.461v-1h-.845a.461.461,0,0,1,0-.922H450.7a.461.461,0,0,1,.461.461V132.5A.461.461,0,0,1,450.7,132.96Zm-184.389-.691a.46.46,0,0,1-.461-.461v-2.766a.461.461,0,1,1,.922,0v2.766A.461.461,0,0,1,266.307,132.269Zm180.317-.768h-2.766a.461.461,0,1,1,0-.922h2.766a.461.461,0,0,1,0,.922Zm-5.532,0h-2.766a.461.461,0,1,1,0-.922h2.766a.461.461,0,0,1,0,.922Zm-5.532,0h-2.766a.461.461,0,0,1,0-.922h2.766a.461.461,0,0,1,0,.922Zm-5.532,0h-2.766a.461.461,0,0,1,0-.922h2.766a.461.461,0,0,1,0,.922Zm-5.532,0h-2.766a.461.461,0,0,1,0-.922H424.5a.461.461,0,0,1,0,.922Zm-5.532,0H416.2a.461.461,0,0,1,0-.922h2.766a.461.461,0,0,1,0,.922Zm-5.532,0h-2.766a.461.461,0,0,1,0-.922h2.766a.461.461,0,0,1,0,.922Zm-5.532,0h-2.766a.461.461,0,0,1,0-.922H407.9a.461.461,0,0,1,0,.922Zm-5.532,0H399.6a.461.461,0,0,1,0-.922h2.766a.461.461,0,0,1,0,.922Zm-5.532,0h-2.766a.461.461,0,0,1,0-.922h2.766a.461.461,0,0,1,0,.922Zm-5.532,0h-2.766a.461.461,0,0,1,0-.922h2.766a.461.461,0,0,1,0,.922Zm-5.532,0H383.01a.461.461,0,0,1,0-.922h2.766a.461.461,0,0,1,0,.922Zm-5.532,0h-2.766a.461.461,0,0,1,0-.922h2.766a.461.461,0,0,1,0,.922Zm-5.532,0h-2.766a.461.461,0,0,1,0-.922h2.766a.461.461,0,1,1,0,.922Zm-4.452-1.076h0a.461.461,0,0,1-.46-.463l.007-2.766a.461.461,0,0,1,.461-.459h0a.461.461,0,0,1,.46.462l-.007,2.766A.462.462,0,0,1,370.26,130.425Zm-103.953-3.688a.46.46,0,0,1-.461-.461V123.51a.461.461,0,0,1,.922,0v2.766A.461.461,0,0,1,266.307,126.737Zm103.97-1.844h0a.461.461,0,0,1-.46-.463l.008-2.766a.461.461,0,0,1,.461-.459h0a.461.461,0,0,1,.46.462l-.008,2.766A.461.461,0,0,1,370.277,124.893Zm-103.97-3.688a.46.46,0,0,1-.461-.461v-2.766a.461.461,0,0,1,.922,0v2.766A.461.461,0,0,1,266.307,121.205Zm103.987-1.844h0a.461.461,0,0,1-.459-.463l.009-2.766a.461.461,0,0,1,.461-.459h0a.461.461,0,0,1,.46.462l-.009,2.766A.462.462,0,0,1,370.294,119.361Zm-103.987-3.688a.46.46,0,0,1-.461-.461v-2.766a.461.461,0,0,1,.922,0v2.766A.461.461,0,0,1,266.307,115.674Zm104-1.844h0a.462.462,0,0,1-.459-.463l.009-2.766a.461.461,0,0,1,.461-.459h0a.461.461,0,0,1,.459.462l-.009,2.766A.461.461,0,0,1,370.311,113.83Zm-104-3.688a.46.46,0,0,1-.461-.461v-2.766a.461.461,0,0,1,.922,0v2.766A.461.461,0,0,1,266.307,110.142ZM370.328,108.3h0a.462.462,0,0,1-.459-.463l.009-2.766a.461.461,0,0,1,.461-.459h0a.461.461,0,0,1,.459.462l-.009,2.766A.462.462,0,0,1,370.328,108.3ZM266.307,104.61a.46.46,0,0,1-.461-.461v-2.766a.461.461,0,0,1,.922,0v2.766A.461.461,0,0,1,266.307,104.61Zm104.039-1.844h0a.461.461,0,0,1-.459-.463l.008-2.765a.462.462,0,0,1,.461-.46h0a.461.461,0,0,1,.459.463l-.008,2.765A.461.461,0,0,1,370.346,102.766ZM266.307,99.079a.46.46,0,0,1-.461-.461V95.852a.461.461,0,0,1,.922,0v2.766A.461.461,0,0,1,266.307,99.079Zm104.056-1.844h0a.461.461,0,0,1-.459-.462l.008-2.766a.461.461,0,0,1,.461-.46h0a.461.461,0,0,1,.459.463l-.008,2.766A.461.461,0,0,1,370.363,97.235ZM266.307,93.547a.46.46,0,0,1-.461-.461V90.32a.461.461,0,0,1,.922,0v2.766A.461.461,0,0,1,266.307,93.547ZM370.381,91.7h0a.46.46,0,0,1-.459-.462l.007-2.766a.485.485,0,0,1,.463-.46.461.461,0,0,1,.459.463l-.007,2.766A.461.461,0,0,1,370.381,91.7ZM266.307,88.015a.46.46,0,0,1-.461-.461V84.788a.461.461,0,0,1,.922,0v2.766A.461.461,0,0,1,266.307,88.015ZM370.4,86.171h0a.461.461,0,0,1-.459-.462l.009-2.766a.461.461,0,0,1,.461-.46.426.426,0,0,1,.461.463l-.009,2.766A.461.461,0,0,1,370.4,86.171Zm-104.09-3.688a.46.46,0,0,1-.461-.461V79.257a.461.461,0,0,1,.922,0v2.766A.461.461,0,0,1,266.307,82.483ZM370.415,80.64a.457.457,0,0,1-.461-.462l.008-2.766a.448.448,0,0,1,.463-.46.461.461,0,0,1,.459.463l-.008,2.766A.461.461,0,0,1,370.415,80.64ZM266.307,76.952a.46.46,0,0,1-.461-.461V73.725a.461.461,0,0,1,.922,0v2.766A.461.461,0,0,1,266.307,76.952Zm104.125-1.844h0a.461.461,0,0,1-.459-.462l.009-2.766a.462.462,0,0,1,.461-.46h0a.462.462,0,0,1,.459.463l-.009,2.766A.46.46,0,0,1,370.432,75.108ZM266.307,71.42a.46.46,0,0,1-.461-.461V68.193a.461.461,0,0,1,.922,0v2.766A.461.461,0,0,1,266.307,71.42Zm104.142-1.844a.449.449,0,0,1-.461-.462L370,66.349a.462.462,0,0,1,.461-.46.475.475,0,0,1,.461.463l-.008,2.766A.461.461,0,0,1,370.449,69.576ZM266.307,65.888a.46.46,0,0,1-.461-.461V62.662a.461.461,0,0,1,.922,0v2.766A.461.461,0,0,1,266.307,65.888Zm104.16-1.844h0a.461.461,0,0,1-.46-.462l.008-2.766a.462.462,0,0,1,.461-.46h0a.461.461,0,0,1,.46.463l-.008,2.766A.461.461,0,0,1,370.467,64.045Zm-104.16-3.688a.46.46,0,0,1-.461-.461V57.13a.461.461,0,0,1,.922,0V59.9A.461.461,0,0,1,266.307,60.357Zm104.177-1.844h0a.46.46,0,0,1-.459-.462l0-.46h-1.382a.461.461,0,1,1,0-.922h1.844a.461.461,0,0,1,.461.463l0,.922A.461.461,0,0,1,370.484,58.513Zm-4.607-.922h-2.766a.461.461,0,1,1,0-.922h2.766a.461.461,0,0,1,0,.922Zm-5.532,0H357.58a.461.461,0,1,1,0-.922h2.766a.461.461,0,0,1,0,.922Zm-5.532,0h-2.766a.461.461,0,0,1,0-.922h2.766a.461.461,0,0,1,0,.922Zm-5.532,0h-2.766a.461.461,0,0,1,0-.922h2.766a.461.461,0,0,1,0,.922Zm-5.532,0h-2.766a.461.461,0,0,1,0-.922h2.766a.461.461,0,0,1,0,.922Zm-5.532,0h-2.766a.461.461,0,0,1,0-.922h2.766a.461.461,0,0,1,0,.922Zm-5.532,0h-2.766a.461.461,0,0,1,0-.922h2.766a.461.461,0,0,1,0,.922Zm-5.532,0H324.39a.461.461,0,0,1,0-.922h2.766a.461.461,0,0,1,0,.922Zm-5.532,0h-2.766a.461.461,0,0,1,0-.922h2.766a.461.461,0,0,1,0,.922Zm-5.532,0h-2.766a.461.461,0,0,1,0-.922h2.766a.461.461,0,0,1,0,.922Zm-5.532,0h-2.766a.461.461,0,0,1,0-.922h2.766a.461.461,0,0,1,0,.922Zm-5.532,0h-2.766a.461.461,0,0,1,0-.922h2.766a.461.461,0,0,1,0,.922Zm-5.532,0h-2.766a.461.461,0,0,1,0-.922H299.5a.461.461,0,1,1,0,.922Zm-5.532,0H291.2a.461.461,0,0,1,0-.922h2.766a.461.461,0,1,1,0,.922Zm-5.532,0h-2.766a.461.461,0,1,1,0-.922h2.766a.461.461,0,1,1,0,.922Zm-5.532,0h-2.766a.461.461,0,1,1,0-.922H282.9a.461.461,0,0,1,0,.922Zm-5.532,0H274.6a.461.461,0,0,1,0-.922h2.766a.461.461,0,0,1,0,.922Zm-5.532,0h-2.766a.461.461,0,0,1,0-.922h2.766a.461.461,0,1,1,0,.922Z" transform="translate(-139.231 -56.669)" fill="#616161"/>
      <path id="Path_164" data-name="Path 164" d="M529.84,305.955h-.461a.461.461,0,0,1,0-.922v-1.844a.461.461,0,1,1,.922,0v2.3A.461.461,0,0,1,529.84,305.955Zm-3.227,0h-2.766a.461.461,0,0,1,0-.922h2.766a.461.461,0,0,1,0,.922Zm-5.532,0h-2.766a.461.461,0,0,1,0-.922h2.766a.461.461,0,0,1,0,.922Zm-5.532,0h-2.766a.461.461,0,0,1,0-.922h2.766a.461.461,0,0,1,0,.922Zm-5.532,0h-2.766a.461.461,0,0,1,0-.922h2.766a.461.461,0,0,1,0,.922Zm-5.532,0h-2.766a.461.461,0,0,1,0-.922h2.766a.461.461,0,1,1,0,.922Zm-5.532,0h-2.766a.461.461,0,0,1,0-.922h2.766a.461.461,0,1,1,0,.922Zm-5.532,0h-2.766a.461.461,0,1,1,0-.922h2.766a.461.461,0,1,1,0,.922Zm-5.532,0h-2.766a.461.461,0,1,1,0-.922h2.766a.461.461,0,0,1,0,.922Zm-5.532,0h-2.766a.461.461,0,1,1,0-.922h2.766a.461.461,0,0,1,0,.922Zm47.48-5.071a.46.46,0,0,1-.461-.461v-2.766a.461.461,0,1,1,.922,0v2.766A.461.461,0,0,1,529.84,300.885Zm0-5.532a.46.46,0,0,1-.461-.461v-2.766a.461.461,0,1,1,.922,0v2.766A.461.461,0,0,1,529.84,295.353Zm0-5.532a.46.46,0,0,1-.461-.461v-2.766a.461.461,0,1,1,.922,0v2.766A.461.461,0,0,1,529.84,289.821Zm0-5.532a.46.46,0,0,1-.461-.461v-2.766a.461.461,0,1,1,.922,0v2.766A.461.461,0,0,1,529.84,284.29Zm0-5.532a.46.46,0,0,1-.461-.461v-2.766a.461.461,0,1,1,.922,0V278.3A.461.461,0,0,1,529.84,278.758Zm0-5.532a.46.46,0,0,1-.461-.461V270a.461.461,0,1,1,.922,0v2.766A.461.461,0,0,1,529.84,273.226Zm0-5.532a.46.46,0,0,1-.461-.461v-2.766a.461.461,0,1,1,.922,0v2.766A.461.461,0,0,1,529.84,267.695Zm0-5.532a.46.46,0,0,1-.461-.461v-.461a.461.461,0,0,1,.461-.461h2.3a.461.461,0,0,1,0,.922H530.3A.461.461,0,0,1,529.84,262.163Zm27.2-.461a.46.46,0,0,1-.461-.461v-2.793a.461.461,0,1,1,.922,0v2.793A.461.461,0,0,1,557.038,261.7Zm-2.766,0h-2.766a.461.461,0,0,1,0-.922h2.766a.461.461,0,0,1,0,.922Zm-5.532,0h-2.766a.461.461,0,0,1,0-.922h2.766a.461.461,0,0,1,0,.922Zm-5.532,0h-2.766a.461.461,0,0,1,0-.922h2.766a.461.461,0,1,1,0,.922Zm-5.532,0h-2.766a.461.461,0,0,1,0-.922h2.766a.461.461,0,0,1,0,.922Zm19.361-5.573a.46.46,0,0,1-.461-.461v-2.777a.461.461,0,1,1,.922,0v2.777A.461.461,0,0,1,557.038,256.129Zm0-5.553a.461.461,0,0,1-.461-.461V247.34a.461.461,0,1,1,.922,0v2.775A.461.461,0,0,1,557.038,250.576Zm0-5.55a.46.46,0,0,1-.461-.461v-2.773a.461.461,0,1,1,.922,0v2.773A.461.461,0,0,1,557.038,245.026Zm0-5.546a.461.461,0,0,1-.461-.461v-2.773a.461.461,0,1,1,.922,0v2.773A.461.461,0,0,1,557.038,239.479Zm0-5.549a.46.46,0,0,1-.461-.461V230.7a.461.461,0,1,1,.922,0v2.773A.461.461,0,0,1,557.038,233.93Zm-156.731-2.959a.46.46,0,0,1-.461-.461v-1.5a.461.461,0,1,1,.922,0v1.5A.461.461,0,0,1,400.307,230.971Zm156.731-2.588a.461.461,0,0,1-.461-.461v-2.774a.461.461,0,1,1,.922,0v2.774A.461.461,0,0,1,557.038,228.383ZM400.307,226.7a.46.46,0,0,1-.461-.461v-2.766a.461.461,0,1,1,.922,0v2.766A.461.461,0,0,1,400.307,226.7Zm156.731-3.868a.46.46,0,0,1-.461-.461V219.6a.461.461,0,1,1,.922,0v2.775A.461.461,0,0,1,557.038,222.834ZM400.307,221.17a.46.46,0,0,1-.461-.461v-2.766a.461.461,0,0,1,.922,0v2.766A.461.461,0,0,1,400.307,221.17Zm156.731-3.886a.461.461,0,0,1-.461-.461v-2.777a.461.461,0,1,1,.922,0v2.777A.461.461,0,0,1,557.038,217.284Zm-156.731-1.646a.46.46,0,0,1-.461-.461v-2.766a.461.461,0,1,1,.922,0v2.766A.461.461,0,0,1,400.307,215.639Zm156.731-3.91a.46.46,0,0,1-.461-.46v-2.782a.461.461,0,1,1,.922,0v2.782A.46.46,0,0,1,557.038,211.729Zm-156.731-1.621a.461.461,0,0,1-.461-.461v-2.766a.461.461,0,1,1,.922,0v2.766A.461.461,0,0,1,400.307,210.108Zm126.775-2.134h-2.071a.461.461,0,0,1,0-.922h2.769a.461.461,0,1,1,0,.922Zm3.465,0a.461.461,0,0,1,0-.922l2.766,0h0a.461.461,0,0,1,0,.922Zm-8.3,0v0Zm-.03,0-2.74,0a.461.461,0,0,1,0-.922h0l2.739,0,.03.461Zm-5.508,0v0Zm-.038,0-2.732,0a.461.461,0,0,1,0-.922h0l2.731,0,.038.461Zm19.413,0a.461.461,0,0,1,0-.922l2.767,0h0a.461.461,0,0,1,0,.922l-2.767,0Zm-24.913-.006h0l-2.769,0a.461.461,0,0,1,0-.922h0l2.769,0a.461.461,0,0,1,0,.922Zm30.445,0a.461.461,0,0,1,0-.922l2.767-.009h0a.461.461,0,0,1,0,.922l-2.769.009Zm-35.982,0h0l-2.764,0a.461.461,0,0,1,0-.922h0l2.764,0a.461.461,0,0,1,0,.922Zm-5.534-.009h0l-2.773-.006a.461.461,0,0,1,0-.922h0l2.773.006a.461.461,0,0,1,0,.922Zm47.051-.007a.461.461,0,0,1,0-.922l2.766-.017h0a.461.461,0,0,1,0,.922l-2.768.017Zm-52.592,0h0l-2.77-.006a.461.461,0,0,1,0-.922h0l2.743.006a.473.473,0,0,1,.474.462A.45.45,0,0,1,494.556,207.931Zm-5.537-.013h0l-2.769-.006a.461.461,0,0,1,0-.922h0l2.769.006a.461.461,0,0,1,0,.922Zm-5.536-.014h0l-2.77-.007a.46.46,0,0,1-.459-.462.477.477,0,0,1,.463-.46l2.768.007a.461.461,0,0,1,0,.922Zm69.2-.01a.461.461,0,0,1-.006-.922c1.128-.012,2.058-.027,2.762-.042a.45.45,0,0,1,.472.45.463.463,0,0,1-.45.472c-.709.016-1.641.03-2.773.042Zm-74.738,0h0l-2.769-.007a.461.461,0,0,1,0-.922h0l2.769.007a.461.461,0,0,1,0,.922Zm-5.537-.016h0l-2.77-.008a.461.461,0,0,1,0-.922h0l2.768.008a.461.461,0,0,1,0,.922Zm-5.54-.017h0l-2.77-.009a.461.461,0,0,1,0-.922h0l2.77.009a.461.461,0,0,1,0,.922Zm-5.54-.018h0l-2.771-.009a.461.461,0,0,1,0-.922h0l2.771.009a.461.461,0,0,1,0,.922Zm-5.54-.018h0l-2.771-.009a.461.461,0,0,1,0-.922h0l2.77.009a.461.461,0,0,1,0,.922Zm-5.543-.019h0l-2.773-.011a.461.461,0,0,1,0-.922h0l2.773.011a.461.461,0,0,1,0,.922Zm-5.546-.02h0l-2.778-.011a.461.461,0,0,1,0-.922h0l2.779.011a.461.461,0,0,1,0,.922Zm-3.21-2.352a.461.461,0,0,1-.461-.461V202.2a.461.461,0,1,1,.922,0v2.766A.461.461,0,0,1,441.488,205.429Zm-41.181-.853a.461.461,0,0,1-.461-.461v-2.766a.461.461,0,0,1,.922,0v2.766A.461.461,0,0,1,400.307,204.576Zm41.181-4.679a.461.461,0,0,1-.461-.461v-2.766a.461.461,0,1,1,.922,0v2.766A.461.461,0,0,1,441.488,199.9Zm-41.181-.853a.461.461,0,0,1-.461-.461v-2.766a.461.461,0,1,1,.922,0v2.766A.461.461,0,0,1,400.307,199.045Zm41.181-4.679a.461.461,0,0,1-.461-.461v-2.766a.461.461,0,1,1,.922,0V193.9A.461.461,0,0,1,441.488,194.366Zm-41.181-.853a.461.461,0,0,1-.461-.461v-2.766a.461.461,0,1,1,.922,0v2.766A.461.461,0,0,1,400.307,193.513Zm41.181-4.679a.461.461,0,0,1-.461-.461v-2.766a.461.461,0,1,1,.922,0v2.766A.461.461,0,0,1,441.488,188.834Zm-41.181-.853a.461.461,0,0,1-.461-.461v-2.766a.461.461,0,1,1,.922,0v2.766A.461.461,0,0,1,400.307,187.981Zm41.181-4.679a.461.461,0,0,1-.461-.461v-2.766a.461.461,0,1,1,.922,0v2.766A.461.461,0,0,1,441.488,183.3Zm-41.181-.853a.461.461,0,0,1-.461-.461v-2.766a.461.461,0,1,1,.922,0v2.766A.461.461,0,0,1,400.307,182.45Zm41.181-4.679a.461.461,0,0,1-.461-.461v-2.766a.461.461,0,0,1,.922,0v2.766A.461.461,0,0,1,441.488,177.771Zm-41.181-.853a.461.461,0,0,1-.461-.461v-2.493a.46.46,0,0,1,.461-.461h.273a.461.461,0,0,1,.188.881v2.073A.461.461,0,0,1,400.307,176.918Zm38.995-2.493h-2.766a.461.461,0,0,1,0-.922H439.3a.461.461,0,1,1,0,.922Zm-5.532,0H431a.461.461,0,1,1,0-.922h2.766a.461.461,0,1,1,0,.922Zm-5.532,0h-2.766a.461.461,0,1,1,0-.922h2.766a.461.461,0,0,1,0,.922Zm-5.532,0h-2.766a.461.461,0,1,1,0-.922h2.766a.461.461,0,0,1,0,.922Zm-5.532,0h-2.766a.461.461,0,0,1,0-.922h2.766a.461.461,0,0,1,0,.922Zm-5.532,0h-2.766a.461.461,0,0,1,0-.922h2.766a.461.461,0,0,1,0,.922Zm-5.532,0h-2.766a.461.461,0,0,1,0-.922h2.766a.461.461,0,0,1,0,.922Z" transform="translate(-149.691 -65.788)" fill="#616161"/>
      <path id="Path_165" data-name="Path 165" d="M141.307,146.266a.46.46,0,0,1-.461-.461v-2.3a.461.461,0,0,1,.922,0v2.3A.461.461,0,0,1,141.307,146.266Zm0-5.07a.461.461,0,0,1-.461-.461V137.97a.461.461,0,0,1,.922,0v2.766A.461.461,0,0,1,141.307,141.2Zm0-5.532a.461.461,0,0,1-.461-.461v-2.766a.461.461,0,1,1,.922,0V135.2A.461.461,0,0,1,141.307,135.665Zm0-5.532a.461.461,0,0,1-.461-.461v-2.766a.461.461,0,1,1,.922,0v2.766A.461.461,0,0,1,141.307,130.133Zm0-5.532a.461.461,0,0,1-.461-.461v-2.766a.461.461,0,0,1,.922,0v2.766A.461.461,0,0,1,141.307,124.6Zm69.145-2.767a.461.461,0,0,1-.461-.461v-2.766a.461.461,0,1,1,.922,0v2.766A.46.46,0,0,1,210.452,121.835Zm-69.145-2.765a.461.461,0,0,1-.461-.461v-2.766a.461.461,0,1,1,.922,0v2.766A.461.461,0,0,1,141.307,119.07Zm69.145-2.767a.461.461,0,0,1-.461-.461v-2.766a.461.461,0,1,1,.922,0v2.766A.46.46,0,0,1,210.452,116.3Zm-69.145-2.765a.461.461,0,0,1-.461-.461v-2.766a.461.461,0,1,1,.922,0v2.766A.461.461,0,0,1,141.307,113.538Zm69.145-2.767a.461.461,0,0,1-.461-.461v-2.766a.461.461,0,0,1,.922,0v2.766A.46.46,0,0,1,210.452,110.771Zm-69.145-2.765a.461.461,0,0,1-.461-.461V104.78a.461.461,0,0,1,.922,0v2.766A.461.461,0,0,1,141.307,108.006Zm69.145-2.767a.461.461,0,0,1-.461-.461v-2.766a.461.461,0,1,1,.922,0v2.766A.46.46,0,0,1,210.452,105.24Zm-69.145-2.765a.461.461,0,0,1-.461-.461V100.63a.461.461,0,0,1,.461-.461h1.382a.461.461,0,0,1,0,.922h-.921v.923A.461.461,0,0,1,141.307,102.475Zm67.762-1.384H206.3a.461.461,0,1,1,0-.922h2.766a.461.461,0,1,1,0,.922Zm-5.532,0h-2.766a.461.461,0,1,1,0-.922h2.766a.461.461,0,0,1,0,.922Zm-5.532,0H195.24a.461.461,0,1,1,0-.922h2.766a.461.461,0,0,1,0,.922Zm-5.532,0h-2.766a.461.461,0,0,1,0-.922h2.766a.461.461,0,0,1,0,.922Zm-5.532,0h-2.766a.461.461,0,0,1,0-.922h2.766a.461.461,0,0,1,0,.922Zm-5.532,0h-2.766a.461.461,0,0,1,0-.922h2.766a.461.461,0,0,1,0,.922Zm-5.532,0h-2.766a.461.461,0,0,1,0-.922h2.766a.461.461,0,1,1,0,.922Zm-5.532,0h-2.766a.461.461,0,0,1,0-.922h2.766a.461.461,0,1,1,0,.922Zm-5.532,0H162.05a.461.461,0,1,1,0-.922h2.766a.461.461,0,0,1,0,.922Zm-5.532,0h-2.766a.461.461,0,1,1,0-.922h2.766a.461.461,0,0,1,0,.922Zm-5.532,0h-2.766a.461.461,0,0,1,0-.922h2.766a.461.461,0,0,1,0,.922Zm-5.532,0h-2.766a.461.461,0,0,1,0-.922h2.766a.461.461,0,0,1,0,.922Z" transform="translate(-129.475 -60.064)" fill="#616161"/>
      <path id="Path_166" data-name="Path 166" d="M175.685,297.685h-1.229a.461.461,0,0,1,0-.922h1.229a.461.461,0,0,1,0,.922Zm-3.995,0h-2.766a.461.461,0,0,1,0-.922h2.766a.461.461,0,0,1,0,.922Zm-5.532,0h-2.766a.461.461,0,0,1,0-.922h2.766a.461.461,0,0,1,0,.922Zm-5.532,0h-2.766a.461.461,0,0,1,0-.922h2.766a.461.461,0,1,1,0,.922Zm-5.532,0H152.33a.461.461,0,0,1,0-.922H155.1a.461.461,0,1,1,0,.922Zm-5.532,0H146.8a.461.461,0,1,1,0-.922h2.766a.461.461,0,1,1,0,.922Zm-4-1.536a.461.461,0,0,1-.461-.461v-2.766a.461.461,0,1,1,.922,0v2.766A.46.46,0,0,1,145.568,296.149Zm0-5.532a.461.461,0,0,1-.461-.461V287.39a.461.461,0,1,1,.922,0v2.766A.46.46,0,0,1,145.568,290.617Zm0-5.532a.461.461,0,0,1-.461-.461v-2.766a.461.461,0,0,1,.922,0v2.766A.46.46,0,0,1,145.568,285.085Zm0-5.532a.461.461,0,0,1-.461-.461v-2.766a.461.461,0,0,1,.922,0v2.766A.46.46,0,0,1,145.568,279.554Zm0-5.532a.461.461,0,0,1-.461-.461V270.8a.461.461,0,0,1,.922,0v2.766A.46.46,0,0,1,145.568,274.022Zm0-5.532a.461.461,0,0,1-.461-.461v-2.766a.461.461,0,1,1,.922,0v2.766A.46.46,0,0,1,145.568,268.49Zm0-5.532a.461.461,0,0,1-.461-.461v-2.766a.461.461,0,0,1,.922,0V262.5A.46.46,0,0,1,145.568,262.959Zm0-5.532a.461.461,0,0,1-.461-.461V254.2a.461.461,0,0,1,.922,0v2.766A.46.46,0,0,1,145.568,257.427Zm0-5.532a.461.461,0,0,1-.461-.461v-2.766a.461.461,0,0,1,.922,0v2.766A.46.46,0,0,1,145.568,251.9Zm0-5.532a.461.461,0,0,1-.461-.461v-2.766a.461.461,0,0,1,.922,0V245.9A.46.46,0,0,1,145.568,246.364Zm0-5.532a.461.461,0,0,1-.461-.461v-2.766a.461.461,0,0,1,.922,0v2.766A.46.46,0,0,1,145.568,240.832Zm0-5.532a.461.461,0,0,1-.461-.461V233.3H144.8a.461.461,0,0,1,0-.922h.768a.461.461,0,0,1,.461.461v2A.46.46,0,0,1,145.568,235.3Zm-3.534-2h-2.766a.461.461,0,1,1,0-.922h2.766a.461.461,0,0,1,0,.922Zm-5.532,0h-2.766a.461.461,0,0,1,0-.922H136.5a.461.461,0,1,1,0,.922Zm-5.532,0h-2a.461.461,0,0,1-.461-.461v-.768a.461.461,0,1,1,.922,0v.307h1.537a.461.461,0,0,1,0,.922Zm-2-3.534a.461.461,0,0,1-.461-.461v-2.766a.461.461,0,1,1,.922,0v2.766A.46.46,0,0,1,128.973,229.769Zm0-5.532a.461.461,0,0,1-.461-.461V221.01a.461.461,0,0,1,.922,0v2.766A.46.46,0,0,1,128.973,224.237Zm0-5.532a.461.461,0,0,1-.461-.461v-2.766a.461.461,0,0,1,.922,0v2.766A.46.46,0,0,1,128.973,218.705Zm0-5.532a.461.461,0,0,1-.461-.461v-2.766a.461.461,0,0,1,.922,0v2.766A.46.46,0,0,1,128.973,213.174Zm0-5.532a.461.461,0,0,1-.461-.461v-2.766a.461.461,0,0,1,.922,0v2.766A.461.461,0,0,1,128.973,207.642Zm0-5.532a.461.461,0,0,1-.461-.461v-2.766a.461.461,0,0,1,.922,0v2.766A.461.461,0,0,1,128.973,202.11Zm0-5.532a.461.461,0,0,1-.461-.461v-2.766a.461.461,0,1,1,.922,0v2.766A.461.461,0,0,1,128.973,196.579Zm0-5.532a.461.461,0,0,1-.461-.461V187.82a.461.461,0,1,1,.922,0v2.766A.461.461,0,0,1,128.973,191.047Zm0-5.532a.461.461,0,0,1-.461-.461v-2.766a.461.461,0,1,1,.922,0v2.766A.461.461,0,0,1,128.973,185.515Zm0-5.532a.461.461,0,0,1-.461-.461v-2.766a.461.461,0,0,1,.922,0v2.766A.461.461,0,0,1,128.973,179.984Zm0-5.532a.461.461,0,0,1-.461-.461v-2.766a.461.461,0,0,1,.922,0v2.766A.461.461,0,0,1,128.973,174.452Zm0-5.532a.461.461,0,0,1-.461-.461v-2.766a.461.461,0,0,1,.922,0v2.766A.461.461,0,0,1,128.973,168.92Zm0-5.532a.461.461,0,0,1-.461-.461v-2.766a.461.461,0,0,1,.922,0v2.766A.461.461,0,0,1,128.973,163.389Zm0-5.532a.461.461,0,0,1-.461-.461V154.63a.461.461,0,0,1,.922,0V157.4A.461.461,0,0,1,128.973,157.857Zm109.559-3.842a.46.46,0,0,1-.461-.461v-2.766a.461.461,0,0,1,.922,0v2.766A.461.461,0,0,1,238.531,154.015Zm-109.559-1.69a.461.461,0,0,1-.461-.461V149.1a.461.461,0,1,1,.922,0v2.766A.461.461,0,0,1,128.973,152.325Zm109.559-3.842a.46.46,0,0,1-.461-.461v-2.766a.461.461,0,0,1,.922,0v2.766A.461.461,0,0,1,238.531,148.483Zm-29.042-.461h-1.843a.461.461,0,1,1,0-.922h1.382v-.461a.461.461,0,0,1,.922,0v.922A.46.46,0,0,1,209.489,148.023Zm-4.609,0h-2.766a.461.461,0,1,1,0-.922h2.766a.461.461,0,0,1,0,.922Zm-5.532,0h-2.766a.461.461,0,0,1,0-.922h2.766a.461.461,0,1,1,0,.922Zm-5.532,0h-2.766a.461.461,0,1,1,0-.922h2.766a.461.461,0,1,1,0,.922Zm-5.532,0H185.52a.461.461,0,1,1,0-.922h2.766a.461.461,0,1,1,0,.922Zm-5.532,0h-2.766a.461.461,0,1,1,0-.922h2.766a.461.461,0,1,1,0,.922Zm-5.532,0h-2.766a.461.461,0,0,1,0-.922h2.766a.461.461,0,1,1,0,.922Zm-5.532,0h-2.766a.461.461,0,0,1,0-.922h2.766a.461.461,0,1,1,0,.922Zm-5.532,0h-2.766a.461.461,0,0,1,0-.922h2.766a.461.461,0,1,1,0,.922Zm-5.532,0h-2.766a.461.461,0,0,1,0-.922h2.766a.461.461,0,1,1,0,.922Zm-5.532,0H152.33a.461.461,0,0,1,0-.922H155.1a.461.461,0,1,1,0,.922Zm-5.532,0H146.8a.461.461,0,1,1,0-.922h2.766a.461.461,0,1,1,0,.922Zm-5.532,0h-2.766a.461.461,0,1,1,0-.922h2.766a.461.461,0,1,1,0,.922Zm-5.532,0h-2.766a.461.461,0,1,1,0-.922H138.5a.461.461,0,1,1,0,.922Zm-5.532,0H130.2a.461.461,0,1,1,0-.922h2.766a.461.461,0,1,1,0,.922Zm76.521-3.688a.461.461,0,0,1-.461-.461v-2.766a.461.461,0,0,1,.922,0v2.766A.461.461,0,0,1,209.489,144.335Zm29.042-1.383a.46.46,0,0,1-.461-.461v-2.766a.461.461,0,0,1,.922,0v2.766A.461.461,0,0,1,238.531,142.952ZM209.489,138.8a.461.461,0,0,1-.461-.461v-2.766a.461.461,0,0,1,.922,0v2.766A.461.461,0,0,1,209.489,138.8Zm29.042-1.383a.46.46,0,0,1-.461-.461v-2.766a.461.461,0,0,1,.922,0v2.766A.461.461,0,0,1,238.531,137.42Zm-29.042-4.149a.461.461,0,0,1-.461-.461v-2.766a.461.461,0,0,1,.922,0v2.766A.461.461,0,0,1,209.489,133.271Zm29.042-1.383a.46.46,0,0,1-.461-.461v-2.766a.461.461,0,0,1,.922,0v2.766A.461.461,0,0,1,238.531,131.888Zm-29.042-4.149a.461.461,0,0,1-.461-.461v-2.766a.461.461,0,0,1,.922,0v2.766A.461.461,0,0,1,209.489,127.74Zm29.042-1.383a.46.46,0,0,1-.461-.461V123.13a.461.461,0,0,1,.922,0V125.9A.461.461,0,0,1,238.531,126.357Zm-2.766-2.766H233a.461.461,0,1,1,0-.922h2.766a.461.461,0,0,1,0,.922Zm-5.532,0h-2.766a.461.461,0,1,1,0-.922h2.766a.461.461,0,0,1,0,.922Zm-5.532,0h-2.766a.461.461,0,0,1,0-.922H224.7a.461.461,0,1,1,0,.922Zm-5.532,0H216.4a.461.461,0,1,1,0-.922h2.766a.461.461,0,0,1,0,.922Zm-5.532,0h-2.766a.461.461,0,1,1,0-.922h2.766a.461.461,0,1,1,0,.922Z" transform="translate(-128.512 -61.821)" fill="#616161"/>
      <path id="Path_167" data-name="Path 167" d="M547.669,203.66a.461.461,0,0,1-.461-.461V200.51a.461.461,0,1,1,.922,0V203.2A.461.461,0,0,1,547.669,203.66Zm0-5.455a.461.461,0,0,1-.461-.461v-2.766a.461.461,0,1,1,.922,0v2.766A.461.461,0,0,1,547.669,198.205Zm0-5.532a.461.461,0,0,1-.461-.461v-2.766a.461.461,0,1,1,.922,0v2.766A.461.461,0,0,1,547.669,192.673Zm0-5.532a.461.461,0,0,1-.461-.461v-2.766a.461.461,0,1,1,.922,0v2.766A.461.461,0,0,1,547.669,187.142Zm0-5.532a.461.461,0,0,1-.461-.461v-2.766a.461.461,0,1,1,.922,0v2.766A.461.461,0,0,1,547.669,181.61Zm0-5.532a.461.461,0,0,1-.461-.461v-2.766a.461.461,0,1,1,.922,0v2.766A.461.461,0,0,1,547.669,176.078Zm0-5.532a.461.461,0,0,1-.461-.461V167.32a.461.461,0,1,1,.922,0v2.766A.461.461,0,0,1,547.669,170.547Zm0-5.532a.461.461,0,0,1-.461-.461v-2.766a.461.461,0,1,1,.922,0v2.766A.461.461,0,0,1,547.669,165.015Zm0-5.532a.461.461,0,0,1-.461-.461v-2.766a.461.461,0,1,1,.922,0v2.766A.461.461,0,0,1,547.669,159.483Zm0-5.532a.461.461,0,0,1-.461-.461v-2.766a.461.461,0,1,1,.922,0v2.766A.461.461,0,0,1,547.669,153.952Zm0-5.532a.461.461,0,0,1-.461-.461v-2.766a.461.461,0,1,1,.922,0v2.766A.461.461,0,0,1,547.669,148.42Zm0-5.532a.461.461,0,0,1-.461-.461v-2.766a.461.461,0,1,1,.922,0v2.766A.461.461,0,0,1,547.669,142.888Zm0-5.532a.461.461,0,0,1-.461-.461V134.13a.461.461,0,1,1,.922,0V136.9A.461.461,0,0,1,547.669,137.357Zm-81.362-.691a.461.461,0,0,1-.461-.461v-2.766a.461.461,0,1,1,.922,0V136.2A.461.461,0,0,1,466.307,136.665Zm81.362-4.84a.461.461,0,0,1-.461-.461V128.6a.461.461,0,1,1,.922,0v2.766A.461.461,0,0,1,547.669,131.825Zm-81.362-.691a.461.461,0,0,1-.461-.461v-2.766a.461.461,0,1,1,.922,0v2.766A.461.461,0,0,1,466.307,131.134Zm81.362-4.84a.461.461,0,0,1-.461-.461V123.7a.461.461,0,0,1,.23-.86h.23a.461.461,0,0,1,.461.461v2.535A.461.461,0,0,1,547.669,126.293Zm-81.362-.691a.461.461,0,0,1-.461-.461V123.3a.46.46,0,0,1,.461-.461h.922a.461.461,0,0,1,0,.922h-.461v1.383A.461.461,0,0,1,466.307,125.6Zm78.365-1.844h-2.766a.461.461,0,1,1,0-.922h2.766a.461.461,0,0,1,0,.922Zm-5.532,0h-2.766a.461.461,0,0,1,0-.922h2.766a.461.461,0,0,1,0,.922Zm-5.532,0h-2.766a.461.461,0,0,1,0-.922h2.766a.461.461,0,0,1,0,.922Zm-5.532,0h-2.766a.461.461,0,0,1,0-.922h2.766a.461.461,0,0,1,0,.922Zm-5.532,0H519.78a.461.461,0,0,1,0-.922h2.766a.461.461,0,0,1,0,.922Zm-5.532,0h-2.766a.461.461,0,0,1,0-.922h2.766a.461.461,0,0,1,0,.922Zm-5.532,0h-2.766a.461.461,0,0,1,0-.922h2.766a.461.461,0,0,1,0,.922Zm-5.532,0h-2.766a.461.461,0,0,1,0-.922h2.766a.461.461,0,0,1,0,.922Zm-5.532,0h-2.766a.461.461,0,0,1,0-.922h2.766a.461.461,0,0,1,0,.922Zm-5.532,0h-2.766a.461.461,0,0,1,0-.922h2.766a.461.461,0,0,1,0,.922Zm-5.532,0H486.59a.461.461,0,0,1,0-.922h2.766a.461.461,0,0,1,0,.922Zm-5.532,0h-2.766a.461.461,0,0,1,0-.922h2.766a.461.461,0,0,1,0,.922Zm-5.532,0h-2.766a.461.461,0,0,1,0-.922h2.766a.461.461,0,1,1,0,.922Zm-5.532,0h-2.766a.461.461,0,0,1,0-.922h2.766a.461.461,0,1,1,0,.922Z" transform="translate(-154.842 -61.834)" fill="#616161"/>
      <rect id="Rectangle_24" data-name="Rectangle 24" width="41.949" height="0.922" transform="translate(351.108 55.308)" fill="#616161"/>
      <rect id="Rectangle_25" data-name="Rectangle 25" width="28.734" height="0.922" transform="translate(331.286 149.346)" fill="#616161"/>
      <rect id="Rectangle_26" data-name="Rectangle 26" width="82.975" height="0.922" transform="translate(133.836 7.793)" fill="#616161"/>
      <rect id="Rectangle_27" data-name="Rectangle 27" width="31.346" height="0.922" transform="translate(133.836 15.783)" fill="#616161"/>
      <rect id="Rectangle_28" data-name="Rectangle 28" width="0.922" height="26.275" transform="translate(244.162 123.541)" fill="#616161"/>
      <rect id="Rectangle_29" data-name="Rectangle 29" width="0.922" height="24.893" transform="translate(385.22 200.524)" fill="#616161"/>
      <rect id="Rectangle_30" data-name="Rectangle 30" width="0.922" height="24.893" transform="translate(304.704 78.827)" fill="#616161"/>
      <rect id="Rectangle_31" data-name="Rectangle 31" width="0.922" height="38.261" transform="translate(5.839 93.117)" fill="#616161"/>
    </g>
  </g>
</svg>
