<svg id="Group_457" data-name="Group 457" xmlns="http://www.w3.org/2000/svg" xmlns:xlink="http://www.w3.org/1999/xlink" width="274.84" height="267.787" viewBox="0 0 274.84 267.787">
  <defs>
    <clipPath id="clip-path">
      <rect id="Rectangle_184" data-name="Rectangle 184" width="274.84" height="267.787" fill="none"/>
    </clipPath>
    <clipPath id="clip-path-5">
      <rect id="Rectangle_165" data-name="Rectangle 165" width="98.307" height="133.511" fill="none"/>
    </clipPath>
    <clipPath id="clip-path-7">
      <rect id="Rectangle_167" data-name="Rectangle 167" width="21.5" height="6.847" fill="none"/>
    </clipPath>
    <clipPath id="clip-path-8">
      <rect id="Rectangle_168" data-name="Rectangle 168" width="29.15" height="31.473" fill="none"/>
    </clipPath>
    <clipPath id="clip-path-9">
      <rect id="Rectangle_169" data-name="Rectangle 169" width="0.086" height="0.083" fill="none"/>
    </clipPath>
    <clipPath id="clip-path-10">
      <rect id="Rectangle_170" data-name="Rectangle 170" width="15.731" height="49.847" fill="none"/>
    </clipPath>
    <clipPath id="clip-path-12">
      <rect id="Rectangle_172" data-name="Rectangle 172" width="66.967" height="36.487" fill="none"/>
    </clipPath>
    <clipPath id="clip-path-13">
      <rect id="Rectangle_173" data-name="Rectangle 173" width="32.799" height="17.21" fill="none"/>
    </clipPath>
    <clipPath id="clip-path-14">
      <rect id="Rectangle_174" data-name="Rectangle 174" width="13.709" height="3.156" fill="none"/>
    </clipPath>
    <clipPath id="clip-path-15">
      <rect id="Rectangle_175" data-name="Rectangle 175" width="4.772" height="3.426" fill="none"/>
    </clipPath>
    <clipPath id="clip-path-16">
      <rect id="Rectangle_176" data-name="Rectangle 176" width="0.178" height="6.284" fill="none"/>
    </clipPath>
    <clipPath id="clip-path-17">
      <rect id="Rectangle_177" data-name="Rectangle 177" width="4.408" height="2.734" fill="none"/>
    </clipPath>
    <clipPath id="clip-path-18">
      <rect id="Rectangle_179" data-name="Rectangle 179" width="10.107" height="2.347" fill="none"/>
    </clipPath>
    <clipPath id="clip-path-19">
      <rect id="Rectangle_180" data-name="Rectangle 180" width="3.623" height="4.438" fill="none"/>
    </clipPath>
    <clipPath id="clip-path-20">
      <rect id="Rectangle_181" data-name="Rectangle 181" width="33.151" height="19.658" fill="none"/>
    </clipPath>
    <clipPath id="clip-path-21">
      <rect id="Rectangle_182" data-name="Rectangle 182" width="0.877" height="1.024" fill="none"/>
    </clipPath>
  </defs>
  <g id="Group_456" data-name="Group 456" clip-path="url(#clip-path)">
    <g id="Group_402" data-name="Group 402">
      <g id="Group_401" data-name="Group 401" clip-path="url(#clip-path)">
        <path id="Path_1059" data-name="Path 1059" d="M40.249,315.935c53.666,31.67,140.675,31.672,194.34,0s53.666-83.019,0-114.689-140.675-31.67-194.341,0-53.666,83.019,0,114.689" transform="translate(0 -71.902)" fill="#f5f5f5"/>
      </g>
    </g>
    <g id="Group_404" data-name="Group 404">
      <g id="Group_403" data-name="Group 403" clip-path="url(#clip-path)">
        <path id="Path_1060" data-name="Path 1060" d="M36.475,234.286c-.337.183-6.556,1.948-8.861-1.1s1.519-7.788-.642-9.536-8.218.01-9.676-3.673,2.864-5.261.435-8.968c-1.53-2.336-5.286-3.643-5.617-5.8-.553-3.607,5.425-5.265,10.538-1.86s8.2,1.845,9.827,1.617,5.119.275,5.007,5.97-1.01,23.346-1.01,23.346" transform="translate(-4.892 -81.624)" fill="#27debf"/>
        <path id="Path_1061" data-name="Path 1061" d="M39.171,227.723a.339.339,0,0,1-.334-.284c-1.781-10.807-14.343-19.6-20.875-21.49a.339.339,0,0,1,.188-.651c6.68,1.93,19.528,10.942,21.355,22.031a.339.339,0,0,1-.28.39.345.345,0,0,1-.055,0" transform="translate(-7.177 -83.16)" fill="#fff"/>
        <path id="Path_1062" data-name="Path 1062" d="M28.652,226.024a.339.339,0,0,1-.174-.63c.2-.121,5.036-2.946,9.8-1.625a.339.339,0,1,1-.181.653c-4.48-1.243-9.225,1.527-9.272,1.554a.332.332,0,0,1-.173.048" transform="translate(-11.469 -90.505)" fill="#fff"/>
      </g>
    </g>
    <g id="Group_409" data-name="Group 409">
      <g id="Group_408" data-name="Group 408" clip-path="url(#clip-path)">
        <path id="Path_1063" data-name="Path 1063" d="M57.141,221.434a5.523,5.523,0,0,0,2.577,4.277l72.177,41.672a5.7,5.7,0,0,0,5.152,0l98.759-57.019a4.84,4.84,0,0,0,0-8.555l-72.177-41.671a5.7,5.7,0,0,0-5.152,0L59.717,217.156a5.524,5.524,0,0,0-2.576,4.278" transform="translate(-23.148 -64.622)" fill="#37474f"/>
        <path id="Path_1064" data-name="Path 1064" d="M134.472,301.783v5.574a5.253,5.253,0,0,1-2.576-.613l-72.18-41.673a4.824,4.824,0,0,1-.262-8.388c-1.154.827-1.065,2.041.262,2.808l72.18,41.673a5.255,5.255,0,0,0,2.576.619" transform="translate(-23.147 -103.981)" fill="#263238"/>
        <path id="Path_1065" data-name="Path 1065" d="M51.434,152.626a5.524,5.524,0,0,1-2.417-4.37V62.123a5.694,5.694,0,0,1,2.576-4.462L150.351.643a5.524,5.524,0,0,1,4.992-.092,5.523,5.523,0,0,1,2.417,4.37V91.054a5.7,5.7,0,0,1-2.576,4.462L56.426,152.534a5.523,5.523,0,0,1-4.992.092" transform="translate(-19.857 0)" fill="#455a64"/>
        <path id="Path_1066" data-name="Path 1066" d="M56.123,193.266a5.534,5.534,0,0,1-4.688-.065,5.519,5.519,0,0,1-2.415-4.367V102.7a5.2,5.2,0,0,1,.756-2.534l4.831,2.784v.006a5.281,5.281,0,0,0-.756,2.534v86.136c0,1.523.993,2.207,2.273,1.642" transform="translate(-19.858 -40.576)" fill="#263238"/>
        <path id="Path_1067" data-name="Path 1067" d="M57.141,67.013v86.133c0,1.643,1.154,2.308,2.576,1.487l98.759-57.019a5.692,5.692,0,0,0,2.576-4.462V7.021c0-1.643-1.153-2.309-2.576-1.487L59.717,62.551a5.7,5.7,0,0,0-2.576,4.462" transform="translate(-23.148 -2.099)" fill="#37474f"/>
        <path id="Path_1068" data-name="Path 1068" d="M60.745,220.131,132.923,261.8a5.693,5.693,0,0,0,5.152,0l98.758-57.018c1.423-.822,1.423-2.153,0-2.975l-72.177-41.671a5.693,5.693,0,0,0-5.152,0L60.745,217.157c-1.422.822-1.422,2.153,0,2.975" transform="translate(-24.175 -64.622)" fill="#455a64"/>
        <path id="Path_1069" data-name="Path 1069" d="M62.748,72.085l95.216-54.959c.854-.493,1.546-.093,1.546.892V92.58a3.416,3.416,0,0,1-1.546,2.677L62.748,150.215c-.854.493-1.546.093-1.546-.892V74.762a3.416,3.416,0,0,1,1.546-2.677" transform="translate(-24.793 -6.852)" fill="#fff"/>
        <g id="Group_407" data-name="Group 407" transform="translate(36.409 10.063)" opacity="0.6">
          <g id="Group_406" data-name="Group 406">
            <g id="Group_405" data-name="Group 405" clip-path="url(#clip-path-5)">
              <path id="Path_1070" data-name="Path 1070" d="M62.748,72.085l95.216-54.959c.854-.493,1.546-.093,1.546.892V92.58a3.416,3.416,0,0,1-1.546,2.677L62.748,150.215c-.854.493-1.546.093-1.546-.892V74.762a3.416,3.416,0,0,1,1.546-2.677" transform="translate(-61.202 -16.915)" fill="#27debf"/>
            </g>
          </g>
        </g>
        <path id="Path_1071" data-name="Path 1071" d="M140.359,101.3c2.535-1.464,4.59-.277,4.59,2.65a10.146,10.146,0,0,1-4.59,7.95c-2.535,1.463-4.59.277-4.59-2.65a10.145,10.145,0,0,1,4.59-7.95" transform="translate(-54.999 -40.782)" fill="#f0f0f0"/>
        <path id="Path_1072" data-name="Path 1072" d="M146.648,124.275c0-4.809-3.377-6.944-7.541-4.54l-2.6,1.5a16.67,16.67,0,0,0-7.541,13.062v1.294l17.686-10.2Z" transform="translate(-52.242 -48.102)" fill="#f0f0f0"/>
        <path id="Path_1073" data-name="Path 1073" d="M151.181,131.787c-.168-.388-.6-.486-1.079-.209L119.216,149.4a2.532,2.532,0,0,0-1.141,1.979v3.634c0,.619.369.922.868.781.052-.015.081-.026.081-.026a1.367,1.367,0,0,0,.192-.093L150.1,137.853a2.523,2.523,0,0,0,1.143-1.979v-3.634a1.416,1.416,0,0,0-.064-.452" transform="translate(-47.832 -53.238)" fill="#f0f0f0"/>
        <path id="Path_1074" data-name="Path 1074" d="M123.946,162.3c.6-.346,1.085-.065,1.085.626a2.4,2.4,0,0,1-1.085,1.879c-.6.346-1.085.065-1.085-.626a2.4,2.4,0,0,1,1.085-1.879" transform="translate(-49.77 -65.686)" fill="#27debf"/>
        <path id="Path_1075" data-name="Path 1075" d="M129.979,158.814c.6-.346,1.085-.065,1.085.626a2.4,2.4,0,0,1-1.085,1.879c-.6.346-1.085.065-1.085-.626a2.4,2.4,0,0,1,1.085-1.879" transform="translate(-52.214 -64.275)" fill="#27debf"/>
        <path id="Path_1076" data-name="Path 1076" d="M136.012,155.331c.6-.346,1.085-.065,1.085.626a2.4,2.4,0,0,1-1.085,1.879c-.6.346-1.085.065-1.085-.626a2.4,2.4,0,0,1,1.085-1.879" transform="translate(-54.658 -62.864)" fill="#27debf"/>
        <path id="Path_1077" data-name="Path 1077" d="M142.045,151.848c.6-.346,1.085-.065,1.085.626a2.4,2.4,0,0,1-1.085,1.879c-.6.346-1.085.065-1.085-.626a2.4,2.4,0,0,1,1.085-1.879" transform="translate(-57.102 -61.453)" fill="#27debf"/>
        <path id="Path_1078" data-name="Path 1078" d="M148.078,148.365c.6-.346,1.085-.065,1.085.626a2.4,2.4,0,0,1-1.085,1.879c-.6.346-1.085.065-1.085-.626a2.4,2.4,0,0,1,1.085-1.879" transform="translate(-59.546 -60.042)" fill="#27debf"/>
        <path id="Path_1079" data-name="Path 1079" d="M154.111,144.882c.6-.346,1.085-.065,1.085.626a2.4,2.4,0,0,1-1.085,1.879c-.6.346-1.085.065-1.085-.626a2.4,2.4,0,0,1,1.085-1.879" transform="translate(-61.99 -58.631)" fill="#27debf"/>
        <path id="Path_1080" data-name="Path 1080" d="M160.144,141.4c.6-.346,1.085-.065,1.085.626a2.4,2.4,0,0,1-1.085,1.879c-.6.346-1.085.065-1.085-.626a2.4,2.4,0,0,1,1.085-1.879" transform="translate(-64.434 -57.22)" fill="#27debf"/>
        <path id="Path_1081" data-name="Path 1081" d="M166.177,137.916c.6-.346,1.085-.065,1.085.626a2.4,2.4,0,0,1-1.085,1.879c-.6.346-1.085.065-1.085-.626a2.4,2.4,0,0,1,1.085-1.879" transform="translate(-66.878 -55.809)" fill="#27debf"/>
        <path id="Path_1082" data-name="Path 1082" d="M75.191,221.4l91.67-52.925a2.844,2.844,0,0,1,2.576,0l4.689,2.707a.785.785,0,0,1,0,1.487L82.441,225.589a2.848,2.848,0,0,1-2.576,0l-4.675-2.7a.785.785,0,0,1,0-1.487" transform="translate(-30.243 -68.125)" fill="#37474f"/>
        <path id="Path_1083" data-name="Path 1083" d="M95.5,233.129,187.171,180.2a2.848,2.848,0,0,1,2.576,0l28.839,16.651a.785.785,0,0,1,0,1.487l-91.564,52.853a2.86,2.86,0,0,1-2.578,0L95.506,234.612a.782.782,0,0,1,0-1.483" transform="translate(-38.472 -72.875)" fill="#263238"/>
        <path id="Path_1084" data-name="Path 1084" d="M179.4,205.545l2.87-1.657c.123-.07.115-.189-.016-.264l-3.318-1.917a.508.508,0,0,0-.458-.009l-2.87,1.657c-.122.071-.114.189.017.265l3.318,1.916a.508.508,0,0,0,.458.009m-5.664-6.584-2.87,1.657c-.122.07-.115.189.016.264L174.2,202.8a.507.507,0,0,0,.457.01l2.87-1.657c.122-.071.115-.189-.016-.264L174.2,198.97a.506.506,0,0,0-.458-.009m-9.273,5.354-4.857,2.8c-.122.07-.115.189.016.264l3.319,1.916a.5.5,0,0,0,.457.009l4.857-2.8c.122-.07.115-.189-.016-.265l-3.319-1.916a.508.508,0,0,0-.458-.009m5.078-2.932-2.87,1.657c-.121.07-.114.189.017.264l3.319,1.916a.507.507,0,0,0,.457.01l2.87-1.657c.123-.071.115-.189-.016-.265L170,201.392a.5.5,0,0,0-.457-.01m-11.26,6.5-2.87,1.657c-.122.07-.114.189.016.264l3.32,1.916a.507.507,0,0,0,.457.01l2.87-1.657c.121-.07.114-.189-.017-.264l-3.318-1.916a.508.508,0,0,0-.458-.01m-4.195,2.422-2.87,1.657c-.122.07-.114.189.016.264l3.319,1.916a.508.508,0,0,0,.458.01l2.87-1.657c.122-.07.115-.189-.016-.264l-3.319-1.916a.507.507,0,0,0-.457-.01m13.055,7.792,2.87-1.657c.122-.07.115-.189-.016-.264l-3.319-1.916a.506.506,0,0,0-.458-.01l-2.87,1.657c-.122.071-.115.189.016.265l3.319,1.916a.508.508,0,0,0,.458.009m-4.2,2.422,2.87-1.657c.122-.071.114-.189-.017-.265l-3.318-1.916a.506.506,0,0,0-.458-.01l-2.87,1.657c-.123.07-.115.189.016.264l3.319,1.916a.5.5,0,0,0,.457.01m-4.195,2.422,2.87-1.657c.123-.071.115-.189-.016-.264L158.29,219.1a.507.507,0,0,0-.457-.009l-2.87,1.657c-.122.071-.114.189.017.265l3.318,1.916a.51.51,0,0,0,.458.009m-4.2,2.422,2.87-1.657c.122-.07.115-.189-.016-.265l-3.319-1.916a.506.506,0,0,0-.458-.01l-2.87,1.657c-.122.071-.115.189.016.265l3.319,1.916a.5.5,0,0,0,.457.01m20.649-17.4,2.87-1.657c.122-.07.115-.189-.016-.264l-3.319-1.916a.507.507,0,0,0-.457-.01l-2.87,1.657c-.122.071-.115.189.016.265l3.319,1.916a.506.506,0,0,0,.458.009m-3.869,7.709,6.4-3.7c.122-.07.115-.189-.016-.264l-8.06-4.653a.508.508,0,0,0-.458-.01l-3.312,1.912c-.122.071-.114.189.016.265l4.267,2.464c.131.075.138.194.016.264l-2.649,1.529c-.122.07-.115.189.016.264l3.319,1.916a.508.508,0,0,0,.458.01m-21.445-2.948-2.87,1.657c-.122.07-.115.189.016.264l3.319,1.916a.507.507,0,0,0,.457.01l2.87-1.657c.122-.071.115-.189-.017-.265l-3.318-1.916a.508.508,0,0,0-.458-.01m-4.195,2.422-2.87,1.657c-.122.07-.114.189.017.264l3.318,1.916a.508.508,0,0,0,.458.01l2.87-1.657c.122-.07.114-.189-.016-.264l-3.32-1.916a.507.507,0,0,0-.457-.01m-20.962,27.158a.508.508,0,0,0,.458.01l2.87-1.657c.122-.07.115-.189-.016-.264l-3.319-1.916a.508.508,0,0,0-.458-.01l-2.87,1.657c-.122.07-.115.189.016.264Zm-12.6-7.783-2.87,1.657c-.122.071-.115.189.017.265l3.318,1.916a.5.5,0,0,0,.458.01l2.87-1.657c.122-.07.115-.189-.016-.264l-3.319-1.916a.5.5,0,0,0-.457-.01m6.751,5.683a.508.508,0,0,0,.458.01l2.87-1.657c.122-.07.114-.189-.017-.264l-3.318-1.916a.508.508,0,0,0-.458-.01l-2.87,1.657c-.123.07-.115.189.016.264Zm13.252,3.572,2.87-1.657c.122-.071.114-.189-.016-.264l-3.319-1.917a.51.51,0,0,0-.458-.009l-2.87,1.657c-.121.07-.114.189.017.264l3.319,1.916a.5.5,0,0,0,.457.01m-4.652,2.413a.507.507,0,0,0,.457.01l2.87-1.657c.122-.07.115-.189-.016-.264l-3.319-1.916a.507.507,0,0,0-.457-.01l-2.87,1.657c-.121.07-.115.189.017.264ZM116.336,232.1l-2.87,1.657c-.122.071-.114.189.017.265l3.318,1.916a.508.508,0,0,0,.458.01l2.87-1.657c.122-.07.114-.189-.017-.264l-3.318-1.916a.508.508,0,0,0-.458-.01m20.974-12.11-2.87,1.657c-.122.071-.115.189.016.264l3.319,1.916a.507.507,0,0,0,.457.01l2.87-1.657c.122-.07.115-.188-.016-.264L137.768,220a.508.508,0,0,0-.458-.01m-16.779,9.688-2.87,1.657c-.122.07-.115.189.016.264L121,233.518a.5.5,0,0,0,.457.01l2.87-1.657c.122-.071.115-.189-.017-.264l-3.318-1.917a.508.508,0,0,0-.458-.009m20.974-12.11-2.87,1.657c-.122.07-.115.189.017.264l3.318,1.916a.506.506,0,0,0,.458.01l2.87-1.657c.122-.071.115-.189-.016-.265l-3.319-1.916a.508.508,0,0,0-.458-.01m-8.389,4.844-2.87,1.657c-.122.07-.115.189.016.265l3.319,1.916a.506.506,0,0,0,.458.01l2.87-1.657c.122-.071.115-.189-.017-.265l-3.319-1.916a.5.5,0,0,0-.457-.01m-4.195,2.422-2.87,1.657c-.122.07-.115.189.017.264l3.318,1.916a.508.508,0,0,0,.458.01l2.87-1.657c.121-.071.114-.189-.017-.265l-3.318-1.916a.508.508,0,0,0-.458-.009m-4.195,2.422-2.87,1.657c-.122.071-.115.189.016.265l3.319,1.916a.506.506,0,0,0,.458.009l2.87-1.657c.122-.071.115-.189-.016-.265l-3.319-1.916a.507.507,0,0,0-.457-.01m21.444,2.948,2.87-1.657c.122-.07.115-.189-.016-.264L145.7,226.37a.507.507,0,0,0-.458-.01l-2.87,1.657c-.122.071-.114.189.017.265l3.318,1.916a.508.508,0,0,0,.458.01m36.842-36.6-2.87,1.657c-.122.07-.115.189.016.264l3.319,1.916a.508.508,0,0,0,.458.01l2.87-1.657c.122-.071.115-.189-.016-.265l-3.319-1.916a.508.508,0,0,0-.458-.01m-5.078,2.932-2.87,1.657c-.122.07-.115.189.016.264l3.319,1.916a.508.508,0,0,0,.458.009l2.87-1.657c.122-.071.115-.189-.016-.265l-3.319-1.916a.507.507,0,0,0-.457-.01m9.272-5.353-2.87,1.657c-.122.07-.114.189.016.264l3.319,1.916a.507.507,0,0,0,.457.01l2.87-1.657c.122-.07.115-.189-.016-.264l-3.318-1.916a.507.507,0,0,0-.459-.009m-21.712,22.39,2.87-1.657c.122-.071.115-.189-.016-.265l-3.319-1.916a.506.506,0,0,0-.458-.009l-2.87,1.657c-.122.07-.115.189.016.264l3.319,1.916a.508.508,0,0,0,.458.01m26.365-24.8a.507.507,0,0,0-.457-.01l-2.87,1.657c-.122.07-.115.189.016.264l3.319,1.916a.507.507,0,0,0,.457.01l2.87-1.657c.123-.07.115-.189-.015-.264Zm-41.495,39.012,2.87-1.657c.122-.071.114-.189-.017-.264l-3.318-1.916a.506.506,0,0,0-.458-.01l-2.87,1.657c-.122.07-.114.189.017.264l3.318,1.916a.5.5,0,0,0,.458.01m51.442-29.7,2.87-1.657c.122-.07.115-.189-.016-.265l-3.319-1.916a.506.506,0,0,0-.458-.01l-2.87,1.657c-.122.07-.115.189.016.265l3.319,1.916a.5.5,0,0,0,.457.01m-8.936-.315,2.87-1.657c.122-.07.115-.189-.016-.264l-3.319-1.916a.5.5,0,0,0-.457-.009l-2.87,1.657c-.122.071-.115.189.016.264l3.319,1.916a.506.506,0,0,0,.458.01m3.729-6.26a.507.507,0,0,0-.457-.01l-2.87,1.657c-.122.07-.115.189.016.264l3.319,1.916a.508.508,0,0,0,.458.01l2.87-1.657c.122-.071.115-.189-.016-.265Zm.883-.51,8.06,4.654a.508.508,0,0,0,.458.009l2.87-1.657c.122-.071.115-.189-.016-.265l-8.06-4.653a.506.506,0,0,0-.458-.009l-2.87,1.657c-.121.07-.114.189.017.264m-9.731,5.345L184.884,198c-.123.07-.115.189.016.265l3.319,1.916a.5.5,0,0,0,.457.01l2.87-1.657c.122-.071.115-.189-.017-.265l-3.318-1.916a.508.508,0,0,0-.458-.009m-31.572,18.227-2.87,1.657c-.122.071-.115.189.017.264l3.318,1.916a.508.508,0,0,0,.458.01l2.87-1.657c.122-.071.114-.189-.017-.265l-3.319-1.916a.507.507,0,0,0-.457-.01M197.155,200.5a.5.5,0,0,0,.457.01l2.87-1.657c.122-.071.115-.189-.016-.264l-3.32-1.917a.507.507,0,0,0-.457-.009l-2.87,1.657c-.123.07-.115.189.016.264Zm-36.778,11.654-2.87,1.657c-.122.071-.114.189.017.265l3.319,1.916a.5.5,0,0,0,.457.009l2.87-1.657c.122-.071.115-.189-.017-.264l-3.318-1.916a.506.506,0,0,0-.458-.01m-31.444,27.734a.508.508,0,0,0,.458.01l2.87-1.657c.121-.07.114-.189-.017-.264l-3.319-1.916a.507.507,0,0,0-.457-.01L125.6,237.7c-.122.07-.114.189.016.264Zm-6.31-5.938-2.87,1.657c-.122.07-.115.189.016.264l3.319,1.916a.507.507,0,0,0,.457.01l2.87-1.657c.122-.07.115-.189-.016-.264l-3.319-1.916a.507.507,0,0,0-.457-.01m10.962,3.525,2.87-1.657c.122-.07.115-.189-.016-.264l-3.319-1.916a.507.507,0,0,0-.457-.01l-2.87,1.657c-.121.07-.115.189.017.264l3.319,1.916a.507.507,0,0,0,.457.009m4.195-2.422,2.87-1.657c.122-.07.115-.189-.016-.264l-3.319-1.916a.508.508,0,0,0-.458-.01l-2.87,1.657c-.121.071-.114.189.017.265l3.319,1.916a.507.507,0,0,0,.457.01m4.2-2.422,2.87-1.657c.122-.07.115-.189-.016-.264l-3.319-1.916a.508.508,0,0,0-.458-.01l-2.87,1.657c-.122.071-.115.189.016.265l3.319,1.916a.506.506,0,0,0,.458.009m-15.158-1.1-2.87,1.657c-.122.07-.114.189.016.264l3.319,1.916a.508.508,0,0,0,.458.01l2.87-1.657c.123-.07.115-.189-.016-.264l-3.319-1.916a.507.507,0,0,0-.457-.01m4.195-2.422-2.87,1.657c-.123.071-.115.189.016.265l3.319,1.916a.507.507,0,0,0,.457.01l2.87-1.657c.121-.07.114-.189-.017-.264l-3.318-1.916a.508.508,0,0,0-.458-.01m16.779-9.687-2.87,1.657c-.122.071-.114.189.017.265l3.319,1.916a.5.5,0,0,0,.457.01l2.87-1.657c.122-.07.114-.189-.016-.265l-3.319-1.916a.506.506,0,0,0-.458-.01m-4.195,2.422-2.87,1.657c-.121.071-.115.189.017.265l3.318,1.916a.506.506,0,0,0,.458.009l2.87-1.657c.122-.071.115-.189-.016-.264l-3.319-1.916a.507.507,0,0,0-.458-.01m8.389-4.844-2.87,1.657c-.122.071-.115.189.016.264l3.319,1.917a.506.506,0,0,0,.458.009l2.87-1.657c.122-.071.115-.189-.017-.264L152.445,217a.508.508,0,0,0-.458-.01m-16.779,9.687-2.87,1.657c-.122.07-.115.189.016.264l3.319,1.916a.508.508,0,0,0,.458.01l2.87-1.657c.122-.071.115-.189-.016-.264l-3.319-1.916a.507.507,0,0,0-.457-.01m4.194-2.422-2.87,1.657c-.122.071-.115.189.016.265l3.319,1.916a.508.508,0,0,0,.458.01l2.87-1.657c.122-.07.115-.189-.016-.264l-3.319-1.916a.508.508,0,0,0-.458-.01m-3.062,17.1,2.87-1.657c.122-.07.115-.189-.016-.264l-3.319-1.916a.506.506,0,0,0-.458-.01l-2.87,1.657c-.122.071-.115.189.016.265l3.319,1.916a.508.508,0,0,0,.458.009m-24.617-2.485-3.319-1.916a.508.508,0,0,0-.458-.01l-2.87,1.657c-.122.07-.115.189.016.264l3.319,1.916a.507.507,0,0,0,.457.01l2.87-1.657c.122-.07.114-.189-.016-.264m6.286,1.845-3.319-1.916a.5.5,0,0,0-.457-.01l-4.416,2.549c-.122.07-.114.189.017.264l3.318,1.916a.508.508,0,0,0,.458.01l4.415-2.549c.122-.071.115-.189-.016-.265m-11.379-5.55-3.318-1.916a.506.506,0,0,0-.458-.01l-3.533,2.039c-.121.07-.115.189.017.264l3.318,1.916a.508.508,0,0,0,.458.01l3.533-2.039c.122-.07.115-.189-.017-.265m2.709-1.563a.507.507,0,0,0,.457.01l2.87-1.657c.122-.07.115-.189-.016-.264l-3.319-1.916a.508.508,0,0,0-.458-.01L106,231.423c-.122.07-.115.189.016.264Zm14.515,9.213-3.318-1.916a.506.506,0,0,0-.458-.009l-5.52,3.186c-.122.071-.115.189.017.264l3.318,1.916a.508.508,0,0,0,.458.01l5.52-3.186c.122-.071.114-.189-.017-.265m2.754,3.885-3.319-1.916a.5.5,0,0,0-.457-.01l-3.533,2.039c-.122.071-.115.189.016.265L122.635,249a.507.507,0,0,0,.457.009l3.533-2.039c.122-.07.115-.189-.016-.264m13.92-31.105a.5.5,0,0,0,.457.01l2.87-1.657c.122-.071.115-.189-.016-.264l-3.319-1.916a.506.506,0,0,0-.458-.01l-2.87,1.657c-.122.071-.115.189.016.265Zm-8.39,4.844a.506.506,0,0,0,.458.009l2.87-1.657c.122-.07.114-.189-.017-.264l-3.319-1.916a.507.507,0,0,0-.457-.01l-2.87,1.657c-.122.071-.114.189.016.265Zm-18.6,10.741a.508.508,0,0,0,.458.01l2.87-1.657c.122-.071.115-.189-.016-.265l-3.319-1.916a.506.506,0,0,0-.457-.009L110.2,229c-.122.07-.115.189.016.264Zm22.8-13.163a.5.5,0,0,0,.457.01l2.87-1.657c.122-.07.115-.189-.017-.265l-3.318-1.916a.506.506,0,0,0-.458-.01L133,215.838c-.122.071-.115.189.016.265Zm-8.39,4.844a.506.506,0,0,0,.458.009l2.87-1.657c.122-.07.115-.189-.016-.265l-3.319-1.916a.507.507,0,0,0-.457-.01l-2.87,1.657c-.122.071-.115.189.017.265Zm.97,24.15a.507.507,0,0,0-.457-.01l-4.416,2.55c-.122.07-.114.189.017.264l3.318,1.916a.506.506,0,0,0,.458.009l4.415-2.549c.122-.07.115-.189-.016-.264Zm-6.99-20.675a.507.507,0,0,0,.457.01l2.87-1.657c.122-.071.115-.189-.017-.265l-3.318-1.916a.508.508,0,0,0-.458-.01l-2.87,1.657c-.122.07-.115.189.016.264Zm-4.2,2.422a.508.508,0,0,0,.458.009l2.87-1.657c.123-.07.115-.189-.016-.264l-3.318-1.916a.508.508,0,0,0-.458-.01l-2.87,1.657c-.122.07-.114.189.017.264Zm88.9-26.616a.508.508,0,0,0-.458-.01l-7.064,4.079c-.123.07-.115.189.016.264l3.319,1.916a.507.507,0,0,0,.457.01l7.065-4.079c.122-.07.115-.189-.016-.264Zm-9.273,5.354a.5.5,0,0,0-.458-.01l-2.87,1.657c-.122.071-.115.189.016.265l3.319,1.916a.507.507,0,0,0,.457.01l2.87-1.657c.122-.07.114-.189-.017-.264Zm-56.822,31.437,2.87-1.657c.121-.071.114-.189-.017-.265l-3.319-1.916a.507.507,0,0,0-.457-.009l-2.87,1.657c-.122.07-.115.189.017.265l3.318,1.916a.508.508,0,0,0,.458.009m48.432-26.594a.508.508,0,0,0-.458-.009l-2.87,1.657c-.122.071-.115.189.016.265l3.319,1.916a.507.507,0,0,0,.458.009l2.87-1.657c.122-.071.115-.189-.016-.264Zm21.857-12.619a.507.507,0,0,0-.457-.01l-2.87,1.657c-.122.07-.115.189.016.264l3.319,1.916a.508.508,0,0,0,.458.01l2.87-1.657c.122-.07.115-.189-.016-.264Zm7.514-.506-8.06-4.653a.506.506,0,0,0-.458-.01l-2.87,1.657c-.122.07-.115.189.016.264l8.06,4.654a.508.508,0,0,0,.458.01l2.87-1.657c.122-.07.114-.189-.017-.264m-45.046,22.175a.508.508,0,0,0-.458-.009l-3.533,2.039c-.122.07-.115.189.016.264l3.319,1.916a.508.508,0,0,0,.458.01l3.532-2.039c.123-.071.115-.189-.016-.265Zm10.6-6.118a.508.508,0,0,0-.458-.01l-4.416,2.549c-.122.07-.114.189.017.264l3.319,1.916a.5.5,0,0,0,.457.01l4.416-2.549c.122-.07.114-.189-.017-.264ZM163.577,227a.507.507,0,0,0-.457-.01L139.5,240.63c-.122.07-.115.189.016.264l3.319,1.916a.506.506,0,0,0,.458.01l23.623-13.639c.123-.071.115-.189-.016-.265Zm-24.948,14.4a.508.508,0,0,0-.458-.01l-3.533,2.04c-.122.07-.115.189.016.264l3.319,1.916a.508.508,0,0,0,.458.01l3.533-2.04c.121-.07.114-.189-.017-.264ZM168.434,224.2a.508.508,0,0,0-.458-.01l-3.532,2.04c-.123.07-.115.189.016.264l3.319,1.916a.507.507,0,0,0,.457.01l3.533-2.04c.122-.07.115-.189-.017-.264Zm-34.663,20.013a.508.508,0,0,0-.458-.01l-3.533,2.04c-.122.07-.114.189.017.264l3.318,1.916a.508.508,0,0,0,.458.01l3.533-2.039c.122-.071.115-.189-.016-.265Zm44.377-25.621a.5.5,0,0,0-.457-.01l-3.533,2.039c-.121.07-.114.189.017.264l3.319,1.916a.507.507,0,0,0,.457.01l3.533-2.039c.123-.07.115-.189-.016-.265Zm15.014-8.668a.506.506,0,0,0-.458-.009l-2.87,1.657c-.122.07-.114.189.017.264l3.318,1.916a.508.508,0,0,0,.458.01l2.87-1.657c.123-.071.115-.189-.016-.265Zm9.191-6.675,2.87-1.657c.122-.071.115-.189-.016-.264l-3.319-1.916a.508.508,0,0,0-.458-.01l-2.87,1.657c-.122.071-.115.189.016.265l3.319,1.916a.506.506,0,0,0,.458.009m-18.756-.121,2.87-1.657c.122-.07.114-.189-.016-.265l-3.319-1.916a.506.506,0,0,0-.458-.01l-2.87,1.657c-.123.071-.115.189.016.265l3.319,1.916a.5.5,0,0,0,.457.01m-9.5,16.437,8.39-4.844c.122-.071.114-.189-.017-.265l-3.318-1.916a.508.508,0,0,0-.458-.009L170.3,217.37c-.123.07-.115.189.016.264l3.318,1.916a.508.508,0,0,0,.458.01m23.608-13.9a.507.507,0,0,0,.458.01l2.87-1.657c.122-.07.115-.189-.016-.264l-3.319-1.916a.508.508,0,0,0-.458-.01l-2.87,1.657c-.122.07-.115.189.016.264Zm-4.283-2.728,2.87-1.657c.121-.07.114-.189-.017-.264l-3.318-1.916a.508.508,0,0,0-.458-.01l-2.87,1.657c-.122.071-.115.189.016.265l3.319,1.916a.508.508,0,0,0,.458.01M169.9,221.982l2.87-1.657c.123-.07.115-.189-.016-.264l-3.319-1.916a.507.507,0,0,0-.457-.01l-2.87,1.657c-.122.07-.114.189.017.264l3.318,1.916a.508.508,0,0,0,.458.01m18.529-10.972a.507.507,0,0,0,.457.01l2.87-1.657c.122-.07.114-.189-.016-.264l-3.319-1.916a.508.508,0,0,0-.458-.01l-2.87,1.657c-.123.07-.115.189.016.264Zm-39.5,23.081,2.87-1.657c.122-.07.115-.188-.016-.264l-3.319-1.916a.506.506,0,0,0-.458-.009l-2.87,1.657c-.122.07-.115.189.016.264l3.319,1.916a.508.508,0,0,0,.458.01m4.195-2.422,2.87-1.657c.121-.071.114-.189-.017-.265l-3.319-1.916a.5.5,0,0,0-.457-.009l-2.87,1.657c-.122.07-.114.189.016.265l3.319,1.916a.506.506,0,0,0,.458.01m-8.39,4.844,2.87-1.657c.122-.071.115-.189-.017-.265l-3.318-1.916a.506.506,0,0,0-.458-.01l-2.87,1.657c-.122.07-.114.189.017.265l3.319,1.916a.507.507,0,0,0,.457.009m16.779-9.687,2.87-1.657c.122-.071.115-.189-.016-.265l-3.319-1.916a.508.508,0,0,0-.458-.01l-2.87,1.657c-.121.07-.114.189.017.264l3.318,1.916a.508.508,0,0,0,.458.01m-4.195,2.422,2.87-1.657c.122-.07.115-.188-.016-.264l-3.319-1.916a.5.5,0,0,0-.457-.009l-2.87,1.657c-.122.07-.115.189.017.264l3.319,1.916a.507.507,0,0,0,.457.01M165.7,224.4l2.87-1.657c.122-.07.115-.189-.016-.264l-3.319-1.916a.508.508,0,0,0-.458-.01l-2.87,1.657c-.122.07-.115.189.016.264l3.319,1.916a.507.507,0,0,0,.457.01m19.192-35.828a.508.508,0,0,0,.458.01l2.87-1.657c.123-.07.115-.189-.016-.264l-.883-.51a.506.506,0,0,0-.458-.009L184,187.8c-.122.07-.115.189.016.264ZM164.255,201.9a.508.508,0,0,0,.458.01l2.87-1.657c.122-.07.115-.189-.016-.264l-3.319-1.916a.507.507,0,0,0-.457-.01l-2.87,1.657c-.122.07-.115.189.016.264Zm8.39-4.844a.5.5,0,0,0,.457.009l2.87-1.657c.122-.07.114-.189-.016-.264l-3.319-1.916a.508.508,0,0,0-.458-.01l-2.87,1.657c-.121.071-.114.189.017.265Zm-13.512,7.8a.508.508,0,0,0,.458.01l2.87-1.657c.122-.07.115-.189-.016-.264l-3.319-1.916a.5.5,0,0,0-.457-.009l-2.87,1.657c-.122.07-.115.189.017.264Zm9.317-5.379a.507.507,0,0,0,.457.01l2.87-1.657c.121-.07.114-.189-.017-.264l-3.319-1.916a.507.507,0,0,0-.457-.01l-2.87,1.657c-.123.071-.115.189.016.265ZM150.743,209.7a.508.508,0,0,0,.458.01l2.87-1.657c.123-.07.115-.189-.016-.264l-3.318-1.916a.506.506,0,0,0-.458-.009l-2.87,1.657c-.122.071-.114.189.017.264Zm4.2-2.422a.507.507,0,0,0,.457.01l2.87-1.657c.122-.07.114-.189-.017-.264l-3.318-1.916a.508.508,0,0,0-.458-.01L151.6,205.1c-.122.07-.115.189.016.264ZM176.5,193.42a.508.508,0,0,0,.458.01l2.87-1.657c.122-.07.114-.189-.016-.264l-.884-.51a.507.507,0,0,0-.457-.01l-2.87,1.657c-.122.071-.115.189.016.264Zm12.585-7.266a.507.507,0,0,0,.457.01l2.87-1.657c.122-.071.115-.189-.017-.264l-.883-.51a.5.5,0,0,0-.457-.009l-2.87,1.657c-.122.07-.115.189.017.264Zm6.972,4.025a.507.507,0,0,0,.457.01l2.87-1.657c.122-.07.115-.189-.016-.264l-3.319-1.916a.508.508,0,0,0-.458-.01L192.727,188c-.123.07-.115.189.016.264Zm10.486,10.643,2.87-1.657c.123-.07.115-.189-.015-.264l-3.32-1.916a.507.507,0,0,0-.457-.01l-2.87,1.657c-.122.071-.114.189.017.265l3.318,1.916a.508.508,0,0,0,.458.01M180.7,191a.5.5,0,0,0,.457.009l2.87-1.657c.122-.07.115-.189-.016-.264l-.883-.51a.5.5,0,0,0-.458-.01l-2.87,1.657c-.121.071-.114.189.017.264Zm-34.152,21.123a.508.508,0,0,0,.458.01l2.87-1.657c.122-.071.115-.189-.016-.265l-3.319-1.916a.507.507,0,0,0-.457-.01l-2.87,1.657c-.122.07-.115.189.016.264Z" transform="translate(-40.2 -74.405)" fill="#455a64"/>
        <path id="Path_1085" data-name="Path 1085" d="M209.6,262.431l28.323-16.353a3.418,3.418,0,0,1,3.091,0l16.241,9.377a.942.942,0,0,1,0,1.785l-28.324,16.353a3.418,3.418,0,0,1-3.091,0L209.6,264.216a.942.942,0,0,1,0-1.785" transform="translate(-84.649 -99.535)" fill="#263238"/>
      </g>
    </g>
    <g id="Group_423" data-name="Group 423">
      <g id="Group_422" data-name="Group 422" clip-path="url(#clip-path)">
        <path id="Path_1086" data-name="Path 1086" d="M261.716,138.986a.005.005,0,0,1,.005-.006l-.036-.024-4.835-2.785c-.28-.125-.69-.006-1.184.369a17.465,17.465,0,0,1-15.491,2.938,11.639,11.639,0,0,1-.9-.938c-.03-.036-.06-.071-.089-.1h-.006a1.9,1.9,0,0,0-.5-.41l-.084-.048L233.75,135.2c-.553-.262-1.053,0-1.386.821-4.676,11.618-14.641,23.392-21.286,26.336a3.759,3.759,0,0,0-1.309.976,2.788,2.788,0,0,0-.738,1.9l.958,26.087c0,7.537,3.183,15.5,9.673,19.37l5.008,2.892.089.048a17.619,17.619,0,0,0,8.876,2.255c.7,0,1.4-.03,2.136-.1a7.168,7.168,0,0,0,3.784-1.892c14.521-15,21.583-35.3,21.583-46.528l.957-27.288c.024-.589-.119-.952-.38-1.095" transform="translate(-84.677 -54.73)" fill="#27debf"/>
        <path id="Path_1087" data-name="Path 1087" d="M265.389,141.974l-.958,27.288c0,11.232-7.062,31.53-21.583,46.528a7.166,7.166,0,0,1-3.784,1.892c-.732.071-1.44.1-2.136.1a17.62,17.62,0,0,1-8.876-2.255l-.089-.048-.173-.107c-6.49-3.873-9.673-11.833-9.673-19.37l-.958-26.087a2.788,2.788,0,0,1,.738-1.9,3.758,3.758,0,0,1,1.309-.976c6.645-2.945,16.61-14.718,21.286-26.336.333-.821.839-1.089,1.392-.827l.083.048a1.9,1.9,0,0,1,.5.41h.006c.03.03.059.065.089.1,4.962,5.777,14.718,5.771,21.232.785.494-.375.9-.494,1.184-.369l.036.024a.006.006,0,0,0-.006.006c.262.143.4.506.381,1.095" transform="translate(-87.97 -56.623)" fill="#27debf"/>
        <g id="Group_412" data-name="Group 412" transform="translate(155.511 81.392)" opacity="0.4">
          <g id="Group_411" data-name="Group 411">
            <g id="Group_410" data-name="Group 410" clip-path="url(#clip-path-7)">
              <path id="Path_1088" data-name="Path 1088" d="M282.9,139.647c-.28-.125-.69-.006-1.184.369-6.133,4.694-15.146,4.973-20.316.155a17.429,17.429,0,0,0,15.479-2.939c.494-.375.9-.494,1.184-.369Z" transform="translate(-261.404 -136.815)" fill="#fff"/>
            </g>
          </g>
        </g>
        <g id="Group_415" data-name="Group 415" transform="translate(124.766 80.372)" opacity="0.4">
          <g id="Group_414" data-name="Group 414">
            <g id="Group_413" data-name="Group 413" clip-path="url(#clip-path-8)">
              <path id="Path_1089" data-name="Path 1089" d="M238.874,137.977c-.553-.262-1.059.006-1.392.827-4.676,11.618-14.641,23.392-21.286,26.336a3.759,3.759,0,0,0-1.309.976,3.1,3.1,0,0,0-.333.458l-4.831-2.79a3.346,3.346,0,0,1,.327-.452,2.477,2.477,0,0,1,.214-.22l.006-.006a1.1,1.1,0,0,0,.083-.083.992.992,0,0,0,.083-.077,3.577,3.577,0,0,1,.922-.589c6.645-2.945,16.61-14.718,21.286-26.336.333-.821.833-1.083,1.386-.821Z" transform="translate(-209.724 -135.101)" fill="#fff"/>
            </g>
          </g>
        </g>
        <path id="Path_1090" data-name="Path 1090" d="M210.642,182.113a.537.537,0,0,1,.083-.077c-.03.03-.054.059-.083.083,0,0-.006-.007,0-.007" transform="translate(-85.329 -73.742)" fill="#27debf"/>
        <g id="Group_418" data-name="Group 418" transform="translate(125.31 108.294)" opacity="0.15">
          <g id="Group_417" data-name="Group 417">
            <g id="Group_416" data-name="Group 416" clip-path="url(#clip-path-9)">
              <path id="Path_1091" data-name="Path 1091" d="M210.725,182.035a1.117,1.117,0,0,1-.083.084s-.006-.007,0-.007a.573.573,0,0,1,.083-.077" transform="translate(-210.639 -182.035)"/>
            </g>
          </g>
        </g>
        <g id="Group_421" data-name="Group 421" transform="translate(124.354 109.055)" opacity="0.15">
          <g id="Group_420" data-name="Group 420">
            <g id="Group_419" data-name="Group 419" clip-path="url(#clip-path-10)">
              <path id="Path_1092" data-name="Path 1092" d="M224.762,233.163l-.089-.041-5.009-2.9c-6.49-3.873-9.673-11.833-9.673-19.371l-.958-26.086a2.585,2.585,0,0,1,.41-1.452l4.831,2.79a2.608,2.608,0,0,0-.4,1.446l.958,26.087c0,7.537,3.183,15.5,9.673,19.37l.173.107Z" transform="translate(-209.031 -183.315)"/>
            </g>
          </g>
        </g>
        <path id="Path_1093" data-name="Path 1093" d="M258.715,212.163l-7.731,4.464,1.2-13.986c-.924-.488-1.514-1.692-1.514-3.42,0-3.079,1.873-6.657,4.183-7.991s4.181.083,4.181,3.162a10.5,10.5,0,0,1-1.514,5.168Z" transform="translate(-101.544 -77.263)" fill="#455a64"/>
        <path id="Path_1094" data-name="Path 1094" d="M258.93,224.006l-7-4.043-.728,8.507Z" transform="translate(-101.759 -89.106)" fill="#37474f"/>
        <path id="Path_1095" data-name="Path 1095" d="M255.268,191.23a9.131,9.131,0,0,0-3.566,4.732l6.234,3.6v0a10.51,10.51,0,0,0,1.514-5.168c0-3.079-1.872-4.5-4.182-3.162" transform="translate(-101.963 -77.263)" fill="#37474f"/>
      </g>
    </g>
    <g id="Group_455" data-name="Group 455">
      <g id="Group_454" data-name="Group 454" clip-path="url(#clip-path)">
        <path id="Path_1096" data-name="Path 1096" d="M95.13,357.676V360c-.01,2.732,1.791,5.467,5.4,7.551,5.437,3.139,13.424,3.9,20.112,2.3l6.211,3.586,4.772-1.079,3.257,1.88.178,3.936,1.754,1.013,4.408.387,3.167,1.767v2.219l3.975,2.295h10.107l3.623-2.091v-2.347l-32.326-16.316a7.44,7.44,0,0,0,2.239-5.082v-2.35c-.486-2.269-2.377-3.44-5.4-5.182-7.2-4.158-18.881-4.158-26.082,0-3.239,1.87-5.076,2.738-5.4,5.182m9.9-2.716a8.166,8.166,0,0,1,7.389,0c2.041,1.178,2.041,3.088,0,4.266a8.166,8.166,0,0,1-7.389,0c-2.041-1.178-2.041-3.088,0-4.266" transform="translate(-38.537 -141.53)" fill="#27debf"/>
        <g id="Group_426" data-name="Group 426" transform="translate(56.594 207.844)" opacity="0.1">
          <g id="Group_425" data-name="Group 425">
            <g id="Group_424" data-name="Group 424" clip-path="url(#clip-path-12)">
              <path id="Path_1097" data-name="Path 1097" d="M95.13,357.676V360c-.01,2.732,1.791,5.467,5.4,7.551,5.437,3.139,13.424,3.9,20.112,2.3l6.211,3.586,4.772-1.079,3.257,1.88.178,3.936,1.754,1.013,4.408.387,3.167,1.767v2.219l3.975,2.295h10.107l3.623-2.091v-2.347l-32.326-16.316a7.44,7.44,0,0,0,2.239-5.082v-2.35c-.486-2.269-2.377-3.44-5.4-5.182-7.2-4.158-18.881-4.158-26.082,0-3.239,1.87-5.076,2.738-5.4,5.182m9.9-2.716a8.166,8.166,0,0,1,7.389,0c2.041,1.178,2.041,3.088,0,4.266a8.166,8.166,0,0,1-7.389,0c-2.041-1.178-2.041-3.088,0-4.266" transform="translate(-95.13 -349.374)"/>
            </g>
          </g>
        </g>
        <path id="Path_1098" data-name="Path 1098" d="M100.532,363.606c5.437,3.139,13.424,3.9,20.112,2.3l6.211,3.586,4.772-1.079,3.257,1.88.178,3.937,1.754,1.013,4.408.387,3.436,1.917-.269,2.068,3.975,2.295h10.107l3.623-2.091-32.326-18.663c3.807-4.039,2.762-9.2-3.156-12.614-7.2-4.158-18.881-4.158-26.082,0s-7.2,10.9,0,15.059m4.5-12.593a8.166,8.166,0,0,1,7.389,0c2.041,1.178,2.041,3.088,0,4.266a8.166,8.166,0,0,1-7.389,0c-2.041-1.178-2.041-3.088,0-4.266" transform="translate(-38.537 -139.931)" fill="#27debf"/>
        <g id="Group_429" data-name="Group 429" transform="translate(58.637 207.541)" opacity="0.3">
          <g id="Group_428" data-name="Group 428">
            <g id="Group_427" data-name="Group 427" clip-path="url(#clip-path-13)">
              <path id="Path_1099" data-name="Path 1099" d="M114.966,366.074a24.469,24.469,0,0,1-12.019-2.845c-2.784-1.608-4.38-3.707-4.38-5.76s1.6-4.152,4.38-5.76a26.815,26.815,0,0,1,24.04,0c2.784,1.607,4.38,3.707,4.38,5.76s-1.6,4.152-4.38,5.76a24.462,24.462,0,0,1-12.019,2.845m0-16.393a23.647,23.647,0,0,0-11.611,2.735c-2.524,1.458-3.971,3.3-3.971,5.052s1.447,3.594,3.972,5.053a26.007,26.007,0,0,0,23.222,0c2.524-1.458,3.971-3.3,3.971-5.052s-1.447-3.594-3.971-5.052a23.645,23.645,0,0,0-11.611-2.735" transform="translate(-98.566 -348.864)"/>
            </g>
          </g>
        </g>
        <g id="Group_432" data-name="Group 432" transform="translate(68.399 225.979)" opacity="0.1">
          <g id="Group_431" data-name="Group 431">
            <g id="Group_430" data-name="Group 430" clip-path="url(#clip-path-14)">
              <path id="Path_1100" data-name="Path 1100" d="M114.975,379.956V382.3a31.278,31.278,0,0,0,13.709-.1v-2.346a31.278,31.278,0,0,1-13.709.1" transform="translate(-114.975 -379.858)"/>
            </g>
          </g>
        </g>
        <g id="Group_435" data-name="Group 435" transform="translate(88.319 228.486)" opacity="0.1">
          <g id="Group_434" data-name="Group 434">
            <g id="Group_433" data-name="Group 433" clip-path="url(#clip-path-15)">
              <path id="Path_1101" data-name="Path 1101" d="M148.459,385.151V387.5l4.772-1.079v-2.347Z" transform="translate(-148.459 -384.072)"/>
            </g>
          </g>
        </g>
        <g id="Group_438" data-name="Group 438" transform="translate(96.348 230.367)" opacity="0.1">
          <g id="Group_437" data-name="Group 437">
            <g id="Group_436" data-name="Group 436" clip-path="url(#clip-path-16)">
              <path id="Path_1102" data-name="Path 1102" d="M161.956,387.233v2.347l.178,3.937v-2.347Z" transform="translate(-161.956 -387.233)"/>
            </g>
          </g>
        </g>
        <g id="Group_441" data-name="Group 441" transform="translate(98.281 235.317)" opacity="0.1">
          <g id="Group_440" data-name="Group 440">
            <g id="Group_439" data-name="Group 439" clip-path="url(#clip-path-17)">
              <path id="Path_1103" data-name="Path 1103" d="M165.2,395.553V397.9l4.407.387V395.94Z" transform="translate(-165.204 -395.553)"/>
            </g>
          </g>
        </g>
        <g id="Group_444" data-name="Group 444" transform="translate(109.83 241.984)" opacity="0.1">
          <g id="Group_443" data-name="Group 443">
            <g id="Group_442" data-name="Group 442" clip-path="url(#clip-path-18)">
              <rect id="Rectangle_178" data-name="Rectangle 178" width="10.107" height="2.347" transform="translate(0 0)"/>
            </g>
          </g>
        </g>
        <g id="Group_447" data-name="Group 447" transform="translate(119.938 239.894)" opacity="0.15">
          <g id="Group_446" data-name="Group 446">
            <g id="Group_445" data-name="Group 445" clip-path="url(#clip-path-19)">
              <path id="Path_1104" data-name="Path 1104" d="M205.23,403.247v2.347l-3.623,2.091v-2.347l1.588-.917v1.013l.876-.506V403.9Z" transform="translate(-201.608 -403.247)"/>
            </g>
          </g>
        </g>
        <path id="Path_1105" data-name="Path 1105" d="M205.153,404.353l-.876.516v1.013l.876-.506Z" transform="translate(-82.751 -163.801)" fill="#27debf"/>
        <g id="Group_450" data-name="Group 450" transform="translate(89.25 221.917)" opacity="0.15">
          <g id="Group_449" data-name="Group 449">
            <g id="Group_448" data-name="Group 448" clip-path="url(#clip-path-20)">
              <path id="Path_1106" data-name="Path 1106" d="M183.175,391.663v1.024l-33.151-19.142.876-.516Z" transform="translate(-150.024 -373.029)"/>
            </g>
          </g>
        </g>
        <g id="Group_453" data-name="Group 453" transform="translate(89.25 221.917)" opacity="0.15">
          <g id="Group_452" data-name="Group 452">
            <g id="Group_451" data-name="Group 451" clip-path="url(#clip-path-21)">
              <path id="Path_1107" data-name="Path 1107" d="M150.9,373.029v1.024l-.877-.507Z" transform="translate(-150.024 -373.029)"/>
            </g>
          </g>
        </g>
      </g>
    </g>
  </g>
</svg>
