<svg xmlns="http://www.w3.org/2000/svg" width="14.38" height="22.398" viewBox="0 0 14.38 22.398">
  <path id="Icon_awesome-mobile-alt" data-name="Icon awesome-mobile-alt" d="M12.223,0H2.157A2.13,2.13,0,0,0,0,2.1V20.3a2.13,2.13,0,0,0,2.157,2.1H12.223a2.13,2.13,0,0,0,2.157-2.1V2.1A2.13,2.13,0,0,0,12.223,0ZM7.19,21a1.4,1.4,0,1,1,1.438-1.4A1.418,1.418,0,0,1,7.19,21Zm5.033-4.725a.534.534,0,0,1-.539.525H2.7a.534.534,0,0,1-.539-.525V2.625A.534.534,0,0,1,2.7,2.1h8.988a.534.534,0,0,1,.539.525Z" fill="#515151" opacity="0.54"/>
</svg>
